<svg width="101" height="101" viewBox="0 0 101 101" fill="none" xmlns="http://www.w3.org/2000/svg">
<path d="M92.7511 48.7356H92.0331C89.0844 35.5561 77.3152 25.6587 63.2639 25.6587H54.2895V22.3766C58.7511 20.7869 61.9818 16.5561 61.9818 11.5561C61.9818 5.19713 56.8023 0.0176405 50.4434 0.0176405C44.0844 0.0176405 38.9049 5.19713 38.9049 11.5561C38.9049 16.5561 42.1357 20.7869 46.5972 22.3766V25.6587H37.6228C23.5716 25.6587 11.8023 35.5561 8.85362 48.7356H8.13567C3.9049 48.7356 0.443359 52.1971 0.443359 56.4279V64.1202C0.443359 68.351 3.9049 71.8125 8.13567 71.8125H9.54592C12.5716 81.2484 20.2126 88.5818 29.8023 91.2484C29.0844 92.7612 28.6485 94.4023 28.6485 96.1715C28.6485 98.2997 30.3664 100.018 32.4946 100.018H68.3921C70.5203 100.018 72.2382 98.2997 72.2382 96.1715C72.2382 94.4023 71.8023 92.7356 71.0844 91.2484C80.6741 88.6074 88.3152 81.2484 91.3408 71.8125H92.7511C96.9818 71.8125 100.443 68.351 100.443 64.1202V56.4279C100.443 52.1971 96.9818 48.7356 92.7511 48.7356ZM50.4434 7.70995C52.5716 7.70995 54.2895 9.4279 54.2895 11.5561C54.2895 13.6843 52.5716 15.4023 50.4434 15.4023C48.3152 15.4023 46.5972 13.6843 46.5972 11.5561C46.5972 9.4279 48.3152 7.70995 50.4434 7.70995ZM63.2639 84.633H37.6228C25.5972 84.633 15.828 74.8638 15.828 62.8382V55.1458C15.828 43.1202 25.5972 33.351 37.6228 33.351H63.2639C75.2895 33.351 85.0587 43.1202 85.0587 55.1458V62.8382C85.0587 74.8638 75.2895 84.633 63.2639 84.633Z" fill="white"/>
<path d="M36.3408 43.6074C32.11 43.6074 28.6485 47.0689 28.6485 51.2997V58.992C28.6485 63.2228 32.11 66.6843 36.3408 66.6843C40.5716 66.6843 44.0331 63.2228 44.0331 58.992V51.2997C44.0331 47.0689 40.5716 43.6074 36.3408 43.6074Z" fill="white"/>
<path d="M64.5459 43.6074C60.3152 43.6074 56.8536 47.0689 56.8536 51.2997V58.992C56.8536 63.2228 60.3152 66.6843 64.5459 66.6843C68.7767 66.6843 72.2382 63.2228 72.2382 58.992V51.2997C72.2382 47.0689 68.7767 43.6074 64.5459 43.6074Z" fill="white"/>
<path d="M23.5972 7.50482L31.2895 10.0689C31.6998 10.1971 32.11 10.2741 32.4946 10.2741C34.11 10.2741 35.5972 9.24841 36.1357 7.63303C36.8023 5.60738 35.7254 3.4279 33.6998 2.76123L26.0075 0.197129C24.0075 -0.469538 21.828 0.607385 21.1357 2.63303C20.4434 4.65867 21.5459 6.83815 23.5716 7.50482H23.5972Z" fill="white"/>
<path d="M24.8023 23.0946C25.2126 23.0946 25.6228 23.0433 26.0075 22.8894L33.6998 20.3253C35.7254 19.6587 36.8023 17.4792 36.1357 15.4535C35.469 13.4279 33.2895 12.351 31.2639 13.0176L23.5716 15.5817C21.5459 16.2484 20.469 18.4279 21.1357 20.4535C21.6741 22.0689 23.1613 23.0946 24.7767 23.0946H24.8023Z" fill="white"/>
<path d="M68.3921 10.2741C68.8023 10.2741 69.2126 10.2228 69.5972 10.0689L77.2895 7.50482C79.3152 6.83815 80.3921 4.65867 79.7254 2.63303C79.0587 0.607385 76.8793 -0.469538 74.8536 0.197129L67.1613 2.76123C65.1357 3.4279 64.0587 5.60738 64.7254 7.63303C65.2639 9.24841 66.7511 10.2741 68.3664 10.2741H68.3921Z" fill="white"/>
<path d="M67.187 20.3253L74.8793 22.8894C75.2895 23.0176 75.6998 23.0946 76.0844 23.0946C77.6998 23.0946 79.187 22.0689 79.7254 20.4535C80.3921 18.4279 79.3152 16.2484 77.2895 15.5817L69.5972 13.0176C67.5972 12.351 65.3921 13.4279 64.7254 15.4535C64.0587 17.4792 65.1357 19.6587 67.1613 20.3253H67.187Z" fill="white"/>
</svg>
