<svg width="36" height="36" viewBox="0 0 36 36" fill="none" xmlns="http://www.w3.org/2000/svg">
<path d="M32.7718 17.6341H32.5182C31.4765 12.9783 27.3189 9.48193 22.3551 9.48193H19.1848V8.32251C20.7609 7.76091 21.9022 6.26635 21.9022 4.50004C21.9022 2.25367 20.0725 0.423956 17.8261 0.423956C15.5798 0.423956 13.75 2.25367 13.75 4.50004C13.75 6.26635 14.8913 7.76091 16.4674 8.32251V9.48193H13.2971C8.33337 9.48193 4.17577 12.9783 3.1341 17.6341H2.88048C1.38591 17.6341 0.163086 18.8569 0.163086 20.3515V23.0689C0.163086 24.5634 1.38591 25.7863 2.88048 25.7863H3.37867C4.44751 29.1196 7.14678 31.7102 10.5345 32.6522C10.2808 33.1866 10.1269 33.7663 10.1269 34.3913C10.1269 35.1432 10.7337 35.75 11.4855 35.75H24.1667C24.9185 35.75 25.5254 35.1432 25.5254 34.3913C25.5254 33.7663 25.3714 33.1776 25.1178 32.6522C28.5055 31.7192 31.2048 29.1196 32.2736 25.7863H32.7718C34.2663 25.7863 35.4892 24.5634 35.4892 23.0689V20.3515C35.4892 18.8569 34.2663 17.6341 32.7718 17.6341ZM17.8261 3.14135C18.5779 3.14135 19.1848 3.74823 19.1848 4.50004C19.1848 5.25185 18.5779 5.85874 17.8261 5.85874C17.0743 5.85874 16.4674 5.25185 16.4674 4.50004C16.4674 3.74823 17.0743 3.14135 17.8261 3.14135ZM22.3551 30.3153H13.2971C9.04895 30.3153 5.59787 26.8642 5.59787 22.616V19.8986C5.59787 15.6504 9.04895 12.1993 13.2971 12.1993H22.3551C26.6033 12.1993 30.0544 15.6504 30.0544 19.8986V22.616C30.0544 26.8642 26.6033 30.3153 22.3551 30.3153Z" fill="#33955C"/>
<path d="M12.8442 15.8225C11.3497 15.8225 10.1269 17.0453 10.1269 18.5399V21.2573C10.1269 22.7519 11.3497 23.9747 12.8442 23.9747C14.3388 23.9747 15.5616 22.7519 15.5616 21.2573V18.5399C15.5616 17.0453 14.3388 15.8225 12.8442 15.8225Z" fill="#33955C"/>
<path d="M22.808 15.8225C21.3134 15.8225 20.0906 17.0453 20.0906 18.5399V21.2573C20.0906 22.7519 21.3134 23.9747 22.808 23.9747C24.3026 23.9747 25.5254 22.7519 25.5254 21.2573V18.5399C25.5254 17.0453 24.3026 15.8225 22.808 15.8225Z" fill="#33955C"/>
<path d="M8.34243 3.06888L11.0598 3.97468C11.2048 4.01997 11.3497 4.04714 11.4855 4.04714C12.0562 4.04714 12.5816 3.68483 12.7718 3.11417C13.0073 2.39859 12.6269 1.62867 11.9113 1.39316L9.19388 0.487362C8.48736 0.251855 7.71743 0.63229 7.47287 1.34787C7.2283 2.06345 7.6178 2.83338 8.33338 3.06888H8.34243Z" fill="#33955C"/>
<path d="M8.76816 8.57613C8.91308 8.57613 9.05801 8.55801 9.19388 8.50367L11.9113 7.59787C12.6269 7.36236 13.0073 6.59243 12.7718 5.87685C12.5363 5.16127 11.7663 4.78084 11.0508 5.01635L8.33338 5.92214C7.6178 6.15765 7.23736 6.92758 7.47287 7.64316C7.66308 8.21381 8.18845 8.57613 8.7591 8.57613H8.76816Z" fill="#33955C"/>
<path d="M24.1667 4.04714C24.3116 4.04714 24.4566 4.02903 24.5924 3.97468L27.3098 3.06888C28.0254 2.83338 28.4058 2.06345 28.1703 1.34787C27.9348 0.63229 27.1649 0.251855 26.4493 0.487362L23.7319 1.39316C23.0163 1.62867 22.6359 2.39859 22.8714 3.11417C23.0616 3.68483 23.587 4.04714 24.1576 4.04714H24.1667Z" fill="#33955C"/>
<path d="M23.741 7.59787L26.4584 8.50367C26.6033 8.54896 26.7482 8.57613 26.8841 8.57613C27.4547 8.57613 27.9801 8.21381 28.1703 7.64316C28.4058 6.92758 28.0254 6.15765 27.3098 5.92214L24.5924 5.01635C23.8859 4.78084 23.1069 5.16127 22.8714 5.87685C22.6359 6.59243 23.0163 7.36236 23.7319 7.59787H23.741Z" fill="#33955C"/>
</svg>
