<svg width="96" height="96" viewBox="0 0 96 96" fill="none" xmlns="http://www.w3.org/2000/svg">
<g filter="url(#filter0_d_403_1040)">
<path d="M59.4175 77.029C59.779 77.6314 60.43 78 61.1325 78L80.4677 78C82.0223 78 82.9826 76.3041 82.1827 74.971L60.5827 38.971C60.2213 38.3686 59.5703 38 58.8677 38L39.5325 38C37.9779 38 37.0177 39.6959 37.8175 41.029L59.4175 77.029Z" fill="#348304"/>
<path fill-rule="evenodd" clip-rule="evenodd" d="M61.1324 80L80.4677 80C83.5768 80 85.4973 76.6081 83.8976 73.942L62.2976 37.942C61.5747 36.7372 60.2727 36 58.8677 36L39.5324 36C36.4232 36 34.5028 39.3919 36.1024 42.058L57.7024 78.058C58.4253 79.2628 59.7274 80 61.1324 80ZM61.1324 78C60.4299 78 59.7789 77.6314 59.4174 77.029L37.8174 41.029C37.0176 39.6959 37.9778 38 39.5324 38L58.8677 38C59.5702 38 60.2212 38.3686 60.5826 38.971L82.1826 74.971C82.9825 76.3041 82.0223 78 80.4677 78L61.1324 78Z" fill="#245E01"/>
<path d="M38.5826 77.029C38.2212 77.6314 37.5701 78 36.8676 78L17.5324 78C15.9778 78 15.0176 76.3041 15.8174 74.971L37.4174 38.971C37.7788 38.3686 38.4298 38 39.1324 38L58.4676 38C60.0222 38 60.9824 39.6959 60.1826 41.029L38.5826 77.029Z" fill="#47B405"/>
<path fill-rule="evenodd" clip-rule="evenodd" d="M36.8677 80L17.5325 80C14.4233 80 12.5028 76.6081 14.1025 73.942L35.7025 37.942C36.4254 36.7372 37.7274 36 39.1325 36L58.4677 36C61.5769 36 63.4973 39.3919 61.8977 42.058L40.2977 78.058C39.5748 79.2628 38.2728 80 36.8677 80ZM36.8677 78C37.5702 78 38.2212 77.6314 38.5827 77.029L60.1827 41.029C60.9825 39.6959 60.0223 38 58.4677 38L39.1325 38C38.4299 38 37.7789 38.3686 37.4175 38.971L15.8175 74.971C15.0176 76.3041 15.9779 78 17.5325 78L36.8677 78Z" fill="#245E01"/>
<path fill-rule="evenodd" clip-rule="evenodd" d="M36.4979 76.8649C36.0203 76.5875 35.858 75.9756 36.1353 75.4979L45.1353 59.9979C45.4126 59.5203 46.0246 59.358 46.5022 59.6353C46.9798 59.9126 47.1422 60.5246 46.8649 61.0022L37.8649 76.5022C37.5875 76.9798 36.9756 77.1422 36.4979 76.8649Z" fill="#64D91D"/>
<path fill-rule="evenodd" clip-rule="evenodd" d="M80.5023 76.8649C80.9799 76.5875 81.1423 75.9756 80.865 75.4979L71.865 59.9979C71.5876 59.5203 70.9756 59.358 70.498 59.6353C70.0204 59.9126 69.8581 60.5246 70.1354 61.0022L79.1354 76.5022C79.4127 76.9798 80.0247 77.1422 80.5023 76.8649Z" fill="#49A411"/>
<path d="M61.5 74.7188C61.5 74.0111 62.0596 73.4375 62.75 73.4375C63.4404 73.4375 64 74.0111 64 74.7188C64 75.4264 63.4404 76 62.75 76C62.0596 76 61.5 75.4264 61.5 74.7188Z" fill="#2A6A02"/>
<path d="M65.8902 74.4063C65.8902 73.526 66.5864 72.8125 67.4451 72.8125C68.3039 72.8125 69 73.526 69 74.4062C69 75.2865 68.3039 76 67.4451 76C66.5864 76 65.8902 75.2865 65.8902 74.4063Z" fill="#2A6A02"/>
<path d="M62.0001 69.8438C62.0001 68.9635 62.6962 68.25 63.555 68.25C64.4137 68.25 65.1099 68.9635 65.1099 69.8438C65.1099 70.724 64.4137 71.4375 63.555 71.4375C62.6962 71.4375 62.0001 70.724 62.0001 69.8438Z" fill="#2A6A02"/>
<path d="M58.4451 72.0156C58.4451 71.5755 58.7932 71.2188 59.2226 71.2188C59.6519 71.2188 60 71.5755 60 72.0156C60 72.4557 59.6519 72.8125 59.2226 72.8125C58.7932 72.8125 58.4451 72.4557 58.4451 72.0156Z" fill="#2A6A02"/>
<path d="M66.6678 70.6406C66.6678 70.2005 67.0158 69.8438 67.4452 69.8438C67.8746 69.8438 68.2227 70.2005 68.2227 70.6406C68.2227 71.0807 67.8746 71.4375 67.4452 71.4375C67.0158 71.4375 66.6678 71.0807 66.6678 70.6406Z" fill="#2A6A02"/>
<path d="M71.0001 75.5156C71.0001 75.0755 71.3481 74.7188 71.7775 74.7188C72.2069 74.7188 72.5549 75.0755 72.5549 75.5156C72.5549 75.9557 72.2069 76.3125 71.7775 76.3125C71.3481 76.3125 71.0001 75.9557 71.0001 75.5156Z" fill="#2A6A02"/>
<path d="M59.2227 66.4531C59.2227 66.013 59.5708 65.6563 60.0001 65.6563C60.4295 65.6563 60.7776 66.013 60.7776 66.4531C60.7776 66.8932 60.4295 67.25 60.0001 67.25C59.5708 67.25 59.2227 66.8932 59.2227 66.4531Z" fill="#2A6A02"/>
<path d="M63.2227 65.6563C63.2227 65.2161 63.5708 64.8594 64.0001 64.8594C64.4295 64.8594 64.7776 65.2161 64.7776 65.6562C64.7776 66.0964 64.4295 66.4531 64.0001 66.4531C63.5708 66.4531 63.2227 66.0964 63.2227 65.6563Z" fill="#2A6A02"/>
<path d="M55.4695 68.5469C55.4695 67.8306 56.036 67.25 56.7348 67.25C57.4335 67.25 58 67.8306 58 68.5469C58 69.2631 57.4335 69.8438 56.7348 69.8438C56.036 69.8438 55.4695 69.2631 55.4695 68.5469Z" fill="#2A6A02"/>
<path d="M53.8201 64.8594C53.8201 64.4193 54.1682 64.0625 54.5976 64.0625C55.0269 64.0625 55.375 64.4193 55.375 64.8594C55.375 65.2995 55.0269 65.6563 54.5976 65.6563C54.1682 65.6563 53.8201 65.2995 53.8201 64.8594Z" fill="#2A6A02"/>
<path d="M21 35C21 20.0883 33.0883 8 48 8C62.9117 8 75 20.0883 75 35C75 49.9117 62.9117 62 48 62C33.0883 62 21 49.9117 21 35Z" fill="#FFBB0D"/>
<path fill-rule="evenodd" clip-rule="evenodd" d="M19 35C19 18.9837 31.9837 6 48 6C64.0163 6 77 18.9837 77 35C77 51.0163 64.0163 64 48 64C31.9837 64 19 51.0163 19 35ZM48 8C33.0883 8 21 20.0883 21 35C21 49.9117 33.0883 62 48 62C62.9117 62 75 49.9117 75 35C75 20.0883 62.9117 8 48 8Z" fill="#E89B05"/>
<path fill-rule="evenodd" clip-rule="evenodd" d="M73 34C73.5523 34 74 34.4477 74 35C74 49.3594 62.3594 61 48 61C47.4477 61 47 60.5523 47 60C47 59.4477 47.4477 59 48 59C61.2548 59 72 48.2548 72 35C72 34.4477 72.4477 34 73 34Z" fill="#E8AA0A"/>
<path fill-rule="evenodd" clip-rule="evenodd" d="M23 36C22.4477 36 22 35.5523 22 35C22 20.6406 33.6406 9 48 9C48.5523 9 49 9.44772 49 10C49 10.5523 48.5523 11 48 11C34.7452 11 24 21.7452 24 35C24 35.5523 23.5523 36 23 36Z" fill="#E8AA0A"/>
<path d="M28 35C28 23.9543 36.9543 15 48 15C59.0457 15 68 23.9543 68 35C68 46.0457 59.0457 55 48 55C36.9543 55 28 46.0457 28 35Z" fill="#FFDD28"/>
<path fill-rule="evenodd" clip-rule="evenodd" d="M26 35C26 22.8497 35.8497 13 48 13C60.1503 13 70 22.8497 70 35C70 47.1503 60.1503 57 48 57C35.8497 57 26 47.1503 26 35ZM48 15C36.9543 15 28 23.9543 28 35C28 46.0457 36.9543 55 48 55C59.0457 55 68 46.0457 68 35C68 23.9543 59.0457 15 48 15Z" fill="#E89B05"/>
<path fill-rule="evenodd" clip-rule="evenodd" d="M48 18C38.6112 18 31 25.6112 31 35C31 35.5523 30.5523 36 30 36C29.4477 36 29 35.5523 29 35C29 24.5066 37.5066 16 48 16C48.5523 16 49 16.4477 49 17C49 17.5523 48.5523 18 48 18Z" fill="#ECC704"/>
<path fill-rule="evenodd" clip-rule="evenodd" d="M48 52C57.3888 52 65 44.3888 65 35C65 34.4477 65.4477 34 66 34C66.5523 34 67 34.4477 67 35C67 45.4934 58.4934 54 48 54C47.4477 54 47 53.5523 47 53C47 52.4477 47.4477 52 48 52Z" fill="#FFEF9C"/>
</g>
<path d="M37 31.4L43.875 30L45.9375 26.5L48 23L52.125 30L59 31.4L53.5 37L54.875 44L48 40.5L41.125 44L42.5 37L37 31.4Z" fill="#FFEF9C"/>
<path fill-rule="evenodd" clip-rule="evenodd" d="M43.875 30L48 23L52.125 30L59 31.4L53.5 37L54.875 44L48 40.5L41.125 44L42.5 37L37 31.4L43.875 30ZM40.3343 37.6491L35.5732 32.8014C35.0595 32.2784 34.8731 31.5162 35.0875 30.8152C35.3018 30.1141 35.8826 29.5865 36.601 29.4402L42.6038 28.2178L46.277 21.9846C46.6365 21.3745 47.2919 21 48 21C48.7082 21 49.3636 21.3745 49.7231 21.9846L53.3963 28.2178L59.3991 29.4402C60.1175 29.5865 60.6982 30.1141 60.9126 30.8152C61.127 31.5162 60.9406 32.2784 60.4269 32.8014L55.6658 37.6491L56.8375 43.6145C56.985 44.3654 56.6911 45.1346 56.0805 45.5959C55.4699 46.0571 54.6496 46.1295 53.9677 45.7823L48 42.7443L42.0324 45.7823C41.3505 46.1295 40.5302 46.0571 39.9196 45.5959C39.309 45.1346 39.0151 44.3654 39.1626 43.6145L40.3343 37.6491Z" fill="#E89B05"/>
<defs>
<filter id="filter0_d_403_1040" x="0" y="0" width="98" height="98" filterUnits="userSpaceOnUse" color-interpolation-filters="sRGB">
<feFlood flood-opacity="0" result="BackgroundImageFix"/>
<feColorMatrix in="SourceAlpha" type="matrix" values="0 0 0 0 0 0 0 0 0 0 0 0 0 0 0 0 0 0 127 0" result="hardAlpha"/>
<feOffset dx="2" dy="2"/>
<feColorMatrix type="matrix" values="0 0 0 0 0.637788 0 0 0 0 0.545996 0 0 0 0 0.47948 0 0 0 0.2 0"/>
<feBlend mode="normal" in2="BackgroundImageFix" result="effect1_dropShadow_403_1040"/>
<feBlend mode="normal" in="SourceGraphic" in2="effect1_dropShadow_403_1040" result="shape"/>
</filter>
</defs>
</svg>
