<svg width="96" height="96" viewBox="0 0 96 96" fill="none" xmlns="http://www.w3.org/2000/svg">
<g filter="url(#filter0_d_403_1040)">
<path d="M58.4175 87.029C58.779 87.6314 59.43 88 60.1325 88L79.4677 88C81.0223 88 81.9826 86.3041 81.1827 84.971L59.5827 48.971C59.2213 48.3686 58.5703 48 57.8677 48L38.5325 48C36.9779 48 36.0177 49.6959 36.8175 51.029L58.4175 87.029Z" fill="#348304"/>
<path fill-rule="evenodd" clip-rule="evenodd" d="M60.1324 90L79.4677 90C82.5768 90 84.4973 86.6081 82.8976 83.942L61.2976 47.942C60.5747 46.7372 59.2727 46 57.8677 46L38.5324 46C35.4232 46 33.5028 49.3919 35.1024 52.058L56.7024 88.058C57.4253 89.2628 58.7274 90 60.1324 90ZM60.1324 88C59.4299 88 58.7789 87.6314 58.4174 87.029L36.8174 51.029C36.0176 49.6959 36.9778 48 38.5324 48L57.8677 48C58.5702 48 59.2212 48.3686 59.5826 48.971L81.1826 84.971C81.9825 86.3041 81.0223 88 79.4677 88L60.1324 88Z" fill="#245E01"/>
<path d="M37.5826 87.029C37.2212 87.6314 36.5701 88 35.8676 88L16.5324 88C14.9778 88 14.0176 86.3041 14.8174 84.971L36.4174 48.971C36.7788 48.3686 37.4298 48 38.1324 48L57.4676 48C59.0222 48 59.9824 49.6959 59.1826 51.029L37.5826 87.029Z" fill="#47B405"/>
<path fill-rule="evenodd" clip-rule="evenodd" d="M35.8677 90L16.5325 90C13.4233 90 11.5028 86.6081 13.1025 83.942L34.7025 47.942C35.4254 46.7372 36.7274 46 38.1325 46L57.4677 46C60.5769 46 62.4973 49.3919 60.8977 52.058L39.2977 88.058C38.5748 89.2628 37.2728 90 35.8677 90ZM35.8677 88C36.5702 88 37.2212 87.6314 37.5827 87.029L59.1827 51.029C59.9825 49.6959 59.0223 48 57.4677 48L38.1325 48C37.4299 48 36.7789 48.3686 36.4175 48.971L14.8175 84.971C14.0176 86.3041 14.9779 88 16.5325 88L35.8677 88Z" fill="#245E01"/>
<path fill-rule="evenodd" clip-rule="evenodd" d="M35.4979 86.8649C35.0203 86.5875 34.858 85.9756 35.1353 85.4979L44.1353 69.9979C44.4126 69.5203 45.0246 69.358 45.5022 69.6353C45.9798 69.9126 46.1422 70.5246 45.8649 71.0022L36.8649 86.5022C36.5875 86.9798 35.9756 87.1422 35.4979 86.8649Z" fill="#64D91D"/>
<path fill-rule="evenodd" clip-rule="evenodd" d="M79.5023 86.8649C79.9799 86.5875 80.1423 85.9756 79.865 85.4979L70.865 69.9979C70.5876 69.5203 69.9756 69.358 69.498 69.6353C69.0204 69.9126 68.8581 70.5246 69.1354 71.0022L78.1354 86.5022C78.4127 86.9798 79.0247 87.1422 79.5023 86.8649Z" fill="#49A411"/>
<path d="M60.5 84.7188C60.5 84.0111 61.0596 83.4375 61.75 83.4375C62.4404 83.4375 63 84.0111 63 84.7188C63 85.4264 62.4404 86 61.75 86C61.0596 86 60.5 85.4264 60.5 84.7188Z" fill="#2A6A02"/>
<path d="M64.8902 84.4063C64.8902 83.526 65.5864 82.8125 66.4451 82.8125C67.3039 82.8125 68 83.526 68 84.4062C68 85.2865 67.3039 86 66.4451 86C65.5864 86 64.8902 85.2865 64.8902 84.4063Z" fill="#2A6A02"/>
<path d="M61.0001 79.8438C61.0001 78.9635 61.6962 78.25 62.555 78.25C63.4137 78.25 64.1099 78.9635 64.1099 79.8438C64.1099 80.724 63.4137 81.4375 62.555 81.4375C61.6962 81.4375 61.0001 80.724 61.0001 79.8438Z" fill="#2A6A02"/>
<path d="M57.4451 82.0156C57.4451 81.5755 57.7932 81.2188 58.2226 81.2188C58.6519 81.2188 59 81.5755 59 82.0156C59 82.4557 58.6519 82.8125 58.2226 82.8125C57.7932 82.8125 57.4451 82.4557 57.4451 82.0156Z" fill="#2A6A02"/>
<path d="M65.6678 80.6406C65.6678 80.2005 66.0158 79.8438 66.4452 79.8438C66.8746 79.8438 67.2227 80.2005 67.2227 80.6406C67.2227 81.0807 66.8746 81.4375 66.4452 81.4375C66.0158 81.4375 65.6678 81.0807 65.6678 80.6406Z" fill="#2A6A02"/>
<path d="M70.0001 85.5156C70.0001 85.0755 70.3481 84.7188 70.7775 84.7188C71.2069 84.7188 71.5549 85.0755 71.5549 85.5156C71.5549 85.9557 71.2069 86.3125 70.7775 86.3125C70.3481 86.3125 70.0001 85.9557 70.0001 85.5156Z" fill="#2A6A02"/>
<path d="M58.2227 76.4531C58.2227 76.013 58.5708 75.6563 59.0001 75.6563C59.4295 75.6563 59.7776 76.013 59.7776 76.4531C59.7776 76.8932 59.4295 77.25 59.0001 77.25C58.5708 77.25 58.2227 76.8932 58.2227 76.4531Z" fill="#2A6A02"/>
<path d="M62.2227 75.6563C62.2227 75.2161 62.5708 74.8594 63.0001 74.8594C63.4295 74.8594 63.7776 75.2161 63.7776 75.6562C63.7776 76.0964 63.4295 76.4531 63.0001 76.4531C62.5708 76.4531 62.2227 76.0964 62.2227 75.6563Z" fill="#2A6A02"/>
<path d="M54.4695 78.5469C54.4695 77.8306 55.036 77.25 55.7348 77.25C56.4335 77.25 57 77.8306 57 78.5469C57 79.2631 56.4335 79.8438 55.7348 79.8438C55.036 79.8438 54.4695 79.2631 54.4695 78.5469Z" fill="#2A6A02"/>
<path d="M52.8201 74.8594C52.8201 74.4193 53.1682 74.0625 53.5976 74.0625C54.0269 74.0625 54.375 74.4193 54.375 74.8594C54.375 75.2995 54.0269 75.6563 53.5976 75.6563C53.1682 75.6563 52.8201 75.2995 52.8201 74.8594Z" fill="#2A6A02"/>
<path d="M21 35C21 20.0883 33.0883 8 48 8C62.9117 8 75 20.0883 75 35C75 49.9117 62.9117 62 48 62C33.0883 62 21 49.9117 21 35Z" fill="#FFBB0D"/>
<path fill-rule="evenodd" clip-rule="evenodd" d="M19 35C19 18.9837 31.9837 6 48 6C64.0163 6 77 18.9837 77 35C77 51.0163 64.0163 64 48 64C31.9837 64 19 51.0163 19 35ZM48 8C33.0883 8 21 20.0883 21 35C21 49.9117 33.0883 62 48 62C62.9117 62 75 49.9117 75 35C75 20.0883 62.9117 8 48 8Z" fill="#E89B05"/>
<path fill-rule="evenodd" clip-rule="evenodd" d="M73 34C73.5523 34 74 34.4477 74 35C74 49.3594 62.3594 61 48 61C47.4477 61 47 60.5523 47 60C47 59.4477 47.4477 59 48 59C61.2548 59 72 48.2548 72 35C72 34.4477 72.4477 34 73 34Z" fill="#E8AA0A"/>
<path fill-rule="evenodd" clip-rule="evenodd" d="M23 36C22.4477 36 22 35.5523 22 35C22 20.6406 33.6406 9 48 9C48.5523 9 49 9.44772 49 10C49 10.5523 48.5523 11 48 11C34.7452 11 24 21.7452 24 35C24 35.5523 23.5523 36 23 36Z" fill="#E8AA0A"/>
<path d="M28 35C28 23.9543 36.9543 15 48 15C59.0457 15 68 23.9543 68 35C68 46.0457 59.0457 55 48 55C36.9543 55 28 46.0457 28 35Z" fill="#FFDD28"/>
<path fill-rule="evenodd" clip-rule="evenodd" d="M26 35C26 22.8497 35.8497 13 48 13C60.1503 13 70 22.8497 70 35C70 47.1503 60.1503 57 48 57C35.8497 57 26 47.1503 26 35ZM48 15C36.9543 15 28 23.9543 28 35C28 46.0457 36.9543 55 48 55C59.0457 55 68 46.0457 68 35C68 23.9543 59.0457 15 48 15Z" fill="#E89B05"/>
<path fill-rule="evenodd" clip-rule="evenodd" d="M48 18C38.6112 18 31 25.6112 31 35C31 35.5523 30.5523 36 30 36C29.4477 36 29 35.5523 29 35C29 24.5066 37.5066 16 48 16C48.5523 16 49 16.4477 49 17C49 17.5523 48.5523 18 48 18Z" fill="#ECC704"/>
<path fill-rule="evenodd" clip-rule="evenodd" d="M48 52C57.3888 52 65 44.3888 65 35C65 34.4477 65.4477 34 66 34C66.5523 34 67 34.4477 67 35C67 45.4934 58.4934 54 48 54C47.4477 54 47 53.5523 47 53C47 52.4477 47.4477 52 48 52Z" fill="#FFEF9C"/>
</g>
<path d="M37 31.4L43.875 30L45.9375 26.5L48 23L52.125 30L59 31.4L53.5 37L54.875 44L48 40.5L41.125 44L42.5 37L37 31.4Z" fill="#FFEF9C"/>
<path fill-rule="evenodd" clip-rule="evenodd" d="M43.875 30L48 23L52.125 30L59 31.4L53.5 37L54.875 44L48 40.5L41.125 44L42.5 37L37 31.4L43.875 30ZM40.3343 37.6491L35.5732 32.8014C35.0595 32.2784 34.8731 31.5162 35.0875 30.8152C35.3018 30.1141 35.8826 29.5865 36.601 29.4402L42.6038 28.2178L46.277 21.9846C46.6365 21.3745 47.2919 21 48 21C48.7082 21 49.3636 21.3745 49.7231 21.9846L53.3963 28.2178L59.3991 29.4402C60.1175 29.5865 60.6982 30.1141 60.9126 30.8152C61.127 31.5162 60.9406 32.2784 60.4269 32.8014L55.6658 37.6491L56.8375 43.6145C56.985 44.3654 56.6911 45.1346 56.0805 45.5959C55.4699 46.0571 54.6496 46.1295 53.9677 45.7823L48 42.7443L42.0324 45.7823C41.3505 46.1295 40.5302 46.0571 39.9196 45.5959C39.309 45.1346 39.0151 44.3654 39.1626 43.6145L40.3343 37.6491Z" fill="#E89B05"/>
<defs>
<filter id="filter0_d_403_1040" x="0" y="0" width="98" height="98" filterUnits="userSpaceOnUse" color-interpolation-filters="sRGB">
<feFlood flood-opacity="0" result="BackgroundImageFix"/>
<feColorMatrix in="SourceAlpha" type="matrix" values="0 0 0 0 0 0 0 0 0 0 0 0 0 0 0 0 0 0 127 0" result="hardAlpha"/>
<feOffset dx="2" dy="2"/>
<feColorMatrix type="matrix" values="0 0 0 0 0.637788 0 0 0 0 0.545996 0 0 0 0 0.47948 0 0 0 0.2 0"/>
<feBlend mode="normal" in2="BackgroundImageFix" result="effect1_dropShadow_403_1040"/>
<feBlend mode="normal" in="SourceGraphic" in2="effect1_dropShadow_403_1040" result="shape"/>
</filter>
</defs>
</svg>
