<svg width="35" height="35" viewBox="0 0 35 35" fill="none" xmlns="http://www.w3.org/2000/svg">
<path fill-rule="evenodd" clip-rule="evenodd" d="M27.8688 2.05624C29.0165 2.06108 30.1164 2.51674 30.9313 3.32499C32.5416 4.89499 32.6992 7.43009 31.2959 9.18749L20.125 22.8375L19.9792 22.9979C18.8244 24.1644 17.2454 24.8117 15.6042 24.7917C14.9687 24.7736 14.3395 24.6605 13.7375 24.4562C14.1756 25.2725 14.406 26.184 14.4084 27.1104C14.4084 28.6575 13.7938 30.1412 12.6998 31.2352C11.6059 32.3292 10.1221 32.9437 8.57503 32.9437H4.9292C3.72108 32.9437 2.7417 31.9644 2.7417 30.7562V27.1104C2.7417 23.8888 5.35337 21.2771 8.57503 21.2771C9.12964 21.2813 9.68038 21.3698 10.2084 21.5396C8.92549 19.1753 9.36594 16.2469 11.2875 14.3646L11.4625 14.2187L25.1125 3.04791C25.89 2.41047 26.8634 2.06028 27.8688 2.05624ZM16.0417 19.8333L20.4167 15.4583C20.8183 15.0274 20.8064 14.3558 20.3899 13.9393C19.9734 13.5228 19.3018 13.5109 18.8709 13.9125L14.4959 18.2875C14.0694 18.7145 14.0694 19.4063 14.4959 19.8333C14.6999 20.0399 14.9785 20.1555 15.2688 20.1542C15.5601 20.1607 15.8407 20.0443 16.0417 19.8333Z" fill="#35C070"/>
</svg>
