<svg width="40" height="44" viewBox="0 0 40 44" fill="none" xmlns="http://www.w3.org/2000/svg">
<path d="M3.03638 18.6115C2.26026 16.4635 1.8722 15.3895 2.03767 14.7013C2.21866 13.9485 2.75399 13.3617 3.43826 13.1659C4.06386 12.9869 5.03706 13.4195 6.98345 14.2845C8.70506 15.0497 9.56587 15.4323 10.3746 15.411C11.2651 15.3876 12.1218 15.0305 12.8032 14.3986C13.4221 13.8247 13.8372 12.9103 14.6675 11.0813L16.4972 7.0505C18.0256 3.6835 18.7898 2 20 2C21.2102 2 21.9744 3.6835 23.5028 7.0505L25.3325 11.0813C26.1628 12.9103 26.5779 13.8247 27.1968 14.3986C27.8782 15.0305 28.7349 15.3876 29.6254 15.411C30.4341 15.4323 31.2949 15.0497 33.0165 14.2845C34.9629 13.4195 35.9361 12.9869 36.5617 13.1659C37.246 13.3617 37.7813 13.9485 37.9623 14.7013C38.1278 15.3895 37.7397 16.4635 36.9636 18.6115L33.6276 27.8443C32.2005 31.7939 31.4869 33.7687 29.9937 34.8844C28.5005 36 26.5708 36 22.7115 36H17.2885C13.4292 36 11.4995 36 10.0063 34.8844C8.51307 33.7687 7.79953 31.7939 6.37245 27.8444L3.03638 18.6115Z" stroke="#FFC920" stroke-width="3"/>
<path d="M20 26H20.018" stroke="#FFC920" stroke-width="4" stroke-linecap="round" stroke-linejoin="round"/>
<path d="M10 42H30" stroke="#FFC920" stroke-width="3" stroke-linecap="round"/>
</svg>
