<svg width="58" height="58" viewBox="0 0 58 58" fill="none" xmlns="http://www.w3.org/2000/svg">
<circle cx="29" cy="29" r="28.75" fill="#35C16F" stroke="#D7F2D5" stroke-width="0.5"/>
<path d="M28.7365 29.2638C32.8138 29.2638 36.1184 25.7822 36.1184 21.4865C36.1184 17.1908 32.8138 13.7092 28.7365 13.7092C24.6592 13.7092 21.3547 17.1908 21.3547 21.4865C21.3547 25.7822 24.6592 29.2638 28.7365 29.2638ZM33.9038 31.2081H32.9407C31.6604 31.8278 30.236 32.1803 28.7365 32.1803C27.2371 32.1803 25.8184 31.8278 24.5324 31.2081H23.5693C19.2901 31.2081 15.8184 34.8658 15.8184 39.3742V41.9018C15.8184 43.512 17.0583 44.8183 18.5865 44.8183H38.8865C40.4148 44.8183 41.6547 43.512 41.6547 41.9018V39.3742C41.6547 34.8658 38.183 31.2081 33.9038 31.2081Z" fill="white"/>
</svg>
