<svg width="36" height="36" viewBox="0 0 36 36" fill="none" xmlns="http://www.w3.org/2000/svg">
<path d="M5.73001 18.255C3.39371 20.597 3.39371 24.388 5.73001 26.73L10.65 31.665H18.27L21.54 28.395L8.56501 15.42L5.73001 18.255Z" fill="#35C070"/>
<path d="M30.27 11.175L25.77 6.675C24.6446 5.54834 23.1175 4.91528 21.525 4.91528C19.9326 4.91528 18.4054 5.54834 17.28 6.675L15.63 8.34L28.605 21.315L30.255 19.65C32.5955 17.3122 32.6022 13.5211 30.27 11.175Z" fill="#35C070"/>
<path fill-rule="evenodd" clip-rule="evenodd" d="M23.13 26.805L10.155 13.83L14.055 9.93L27.03 22.905L23.13 26.805ZM23.94 21.315C23.94 20.6937 23.4363 20.19 22.815 20.19H21.15C20.5287 20.19 20.025 20.6937 20.025 21.315C20.025 21.9363 20.5287 22.44 21.15 22.44H22.815C23.4363 22.44 23.94 21.9363 23.94 21.315ZM19.5 16.845C20.1213 16.845 20.625 17.3487 20.625 17.97C20.625 18.5913 20.1213 19.095 19.5 19.095H17.805C17.1837 19.095 16.68 18.5913 16.68 17.97C16.68 17.3487 17.1837 16.845 17.805 16.845H19.5ZM17.265 14.625C17.265 14.0037 16.7613 13.5 16.14 13.5H14.475C13.8537 13.5 13.35 14.0037 13.35 14.625C13.35 15.2463 13.8537 15.75 14.475 15.75H16.14C16.7613 15.75 17.265 15.2463 17.265 14.625Z" fill="#35C070"/>
</svg>
