<svg width="29" height="29" viewBox="0 0 29 29" fill="none" xmlns="http://www.w3.org/2000/svg">
<path d="M14.499 11.8638V17.4792H22.3026C21.9599 19.2851 20.9316 20.8143 19.3894 21.8424L24.0953 25.4938C26.8371 22.963 28.4189 19.2457 28.4189 14.8298C28.4189 13.8017 28.3266 12.8129 28.1552 11.8639L14.499 11.8638Z" fill="#4285F4"/>
<path d="M6.37388 17.2598L5.31253 18.0722L1.55566 20.9985C3.94156 25.7307 8.83163 28.9999 14.4997 28.9999C18.4146 28.9999 21.6968 27.708 24.096 25.4936L19.3901 21.8422C18.0983 22.7122 16.4506 23.2395 14.4997 23.2395C10.7298 23.2395 7.52671 20.6954 6.37981 17.2681L6.37388 17.2598Z" fill="#34A853"/>
<path d="M1.55534 8.00146C0.566757 9.95229 0 12.1537 0 14.5C0 16.8463 0.566757 19.0477 1.55534 20.9985C1.55534 21.0116 6.37994 17.2549 6.37994 17.2549C6.08995 16.3849 5.91854 15.4622 5.91854 14.4998C5.91854 13.5374 6.08995 12.6148 6.37994 11.7448L1.55534 8.00146Z" fill="#FBBC05"/>
<path d="M14.5 5.77361C16.6355 5.77361 18.5337 6.51177 20.0496 7.93542L24.2018 3.78322C21.6841 1.4369 18.4151 0 14.5 0C8.83193 0 3.94156 3.25589 1.55566 8.00134L6.38012 11.745C7.52687 8.31767 10.7301 5.77361 14.5 5.77361Z" fill="#EA4335"/>
</svg>
