<svg width="44" height="44" viewBox="0 0 44 44" fill="none" xmlns="http://www.w3.org/2000/svg">
<path d="M36.7718 21.6341H36.5182C35.4765 16.9783 31.3189 13.4819 26.3551 13.4819H23.1848V12.3225C24.7609 11.7609 25.9022 10.2663 25.9022 8.50004C25.9022 6.25367 24.0725 4.42396 21.8261 4.42396C19.5798 4.42396 17.75 6.25367 17.75 8.50004C17.75 10.2663 18.8913 11.7609 20.4674 12.3225V13.4819H17.2971C12.3334 13.4819 8.17577 16.9783 7.1341 21.6341H6.88048C5.38591 21.6341 4.16309 22.8569 4.16309 24.3515V27.0689C4.16309 28.5634 5.38591 29.7863 6.88048 29.7863H7.37867C8.44751 33.1196 11.1468 35.7102 14.5345 36.6522C14.2808 37.1866 14.1269 37.7663 14.1269 38.3913C14.1269 39.1432 14.7337 39.75 15.4855 39.75H28.1667C28.9185 39.75 29.5254 39.1432 29.5254 38.3913C29.5254 37.7663 29.3714 37.1776 29.1178 36.6522C32.5055 35.7192 35.2048 33.1196 36.2736 29.7863H36.7718C38.2663 29.7863 39.4892 28.5634 39.4892 27.0689V24.3515C39.4892 22.8569 38.2663 21.6341 36.7718 21.6341ZM21.8261 7.14135C22.5779 7.14135 23.1848 7.74823 23.1848 8.50004C23.1848 9.25185 22.5779 9.85874 21.8261 9.85874C21.0743 9.85874 20.4674 9.25185 20.4674 8.50004C20.4674 7.74823 21.0743 7.14135 21.8261 7.14135ZM26.3551 34.3153H17.2971C13.049 34.3153 9.59787 30.8642 9.59787 26.616V23.8986C9.59787 19.6504 13.049 16.1993 17.2971 16.1993H26.3551C30.6033 16.1993 34.0544 19.6504 34.0544 23.8986V26.616C34.0544 30.8642 30.6033 34.3153 26.3551 34.3153Z" fill="#35C070"/>
<path d="M16.8442 19.8225C15.3497 19.8225 14.1269 21.0453 14.1269 22.5399V25.2573C14.1269 26.7519 15.3497 27.9747 16.8442 27.9747C18.3388 27.9747 19.5616 26.7519 19.5616 25.2573V22.5399C19.5616 21.0453 18.3388 19.8225 16.8442 19.8225Z" fill="#35C070"/>
<path d="M26.808 19.8225C25.3134 19.8225 24.0906 21.0453 24.0906 22.5399V25.2573C24.0906 26.7519 25.3134 27.9747 26.808 27.9747C28.3026 27.9747 29.5254 26.7519 29.5254 25.2573V22.5399C29.5254 21.0453 28.3026 19.8225 26.808 19.8225Z" fill="#35C070"/>
<path d="M12.3424 7.06888L15.0598 7.97468C15.2048 8.01997 15.3497 8.04714 15.4855 8.04714C16.0562 8.04714 16.5816 7.68483 16.7718 7.11417C17.0073 6.39859 16.6269 5.62867 15.9113 5.39316L13.1939 4.48736C12.4874 4.25186 11.7174 4.63229 11.4729 5.34787C11.2283 6.06345 11.6178 6.83338 12.3334 7.06888H12.3424Z" fill="#35C070"/>
<path d="M12.7682 12.5761C12.9131 12.5761 13.058 12.558 13.1939 12.5037L15.9113 11.5979C16.6269 11.3624 17.0073 10.5924 16.7718 9.87685C16.5363 9.16127 15.7663 8.78084 15.0508 9.01635L12.3334 9.92214C11.6178 10.1577 11.2374 10.9276 11.4729 11.6432C11.6631 12.2138 12.1884 12.5761 12.7591 12.5761H12.7682Z" fill="#35C070"/>
<path d="M28.1667 8.04714C28.3116 8.04714 28.4566 8.02903 28.5924 7.97468L31.3098 7.06888C32.0254 6.83338 32.4058 6.06345 32.1703 5.34787C31.9348 4.63229 31.1649 4.25186 30.4493 4.48736L27.7319 5.39316C27.0163 5.62867 26.6359 6.39859 26.8714 7.11417C27.0616 7.68483 27.587 8.04714 28.1576 8.04714H28.1667Z" fill="#35C070"/>
<path d="M27.741 11.5979L30.4584 12.5037C30.6033 12.549 30.7482 12.5761 30.8841 12.5761C31.4548 12.5761 31.9801 12.2138 32.1703 11.6432C32.4058 10.9276 32.0254 10.1577 31.3098 9.92214L28.5924 9.01635C27.8859 8.78084 27.1069 9.16127 26.8714 9.87685C26.6359 10.5924 27.0163 11.3624 27.7319 11.5979H27.741Z" fill="#35C070"/>
</svg>
