<svg width="36" height="36" viewBox="0 0 36 36" fill="none" xmlns="http://www.w3.org/2000/svg">
<path d="M32.8587 17.721H32.6051C31.5634 13.0652 27.4058 9.56884 22.442 9.56884H19.2717V8.40942C20.8478 7.84783 21.9891 6.35326 21.9891 4.58696C21.9891 2.34058 20.1594 0.51087 17.913 0.51087C15.6667 0.51087 13.837 2.34058 13.837 4.58696C13.837 6.35326 14.9783 7.84783 16.5543 8.40942V9.56884H13.3841C8.42029 9.56884 4.26268 13.0652 3.22101 17.721H2.96739C1.47283 17.721 0.25 18.9438 0.25 20.4384V23.1558C0.25 24.6504 1.47283 25.8732 2.96739 25.8732H3.46558C4.53442 29.2065 7.23369 31.7971 10.6214 32.7391C10.3678 33.2736 10.2138 33.8533 10.2138 34.4783C10.2138 35.2301 10.8207 35.837 11.5725 35.837H24.2536C25.0054 35.837 25.6123 35.2301 25.6123 34.4783C25.6123 33.8533 25.4583 33.2645 25.2047 32.7391C28.5924 31.8062 31.2917 29.2065 32.3605 25.8732H32.8587C34.3533 25.8732 35.5761 24.6504 35.5761 23.1558V20.4384C35.5761 18.9438 34.3533 17.721 32.8587 17.721ZM17.913 3.22826C18.6649 3.22826 19.2717 3.83515 19.2717 4.58696C19.2717 5.33877 18.6649 5.94565 17.913 5.94565C17.1612 5.94565 16.5543 5.33877 16.5543 4.58696C16.5543 3.83515 17.1612 3.22826 17.913 3.22826ZM22.442 30.4022H13.3841C9.13587 30.4022 5.68478 26.9511 5.68478 22.7029V19.9855C5.68478 15.7373 9.13587 12.2862 13.3841 12.2862H22.442C26.6902 12.2862 30.1413 15.7373 30.1413 19.9855V22.7029C30.1413 26.9511 26.6902 30.4022 22.442 30.4022Z" fill="black"/>
<path d="M12.9312 15.9094C11.4366 15.9094 10.2138 17.1322 10.2138 18.6268V21.3442C10.2138 22.8388 11.4366 24.0616 12.9312 24.0616C14.4257 24.0616 15.6485 22.8388 15.6485 21.3442V18.6268C15.6485 17.1322 14.4257 15.9094 12.9312 15.9094Z" fill="black"/>
<path d="M22.8949 15.9094C21.4004 15.9094 20.1775 17.1322 20.1775 18.6268V21.3442C20.1775 22.8388 21.4004 24.0616 22.8949 24.0616C24.3895 24.0616 25.6123 22.8388 25.6123 21.3442V18.6268C25.6123 17.1322 24.3895 15.9094 22.8949 15.9094Z" fill="black"/>
<path d="M8.42935 3.1558L11.1467 4.06159C11.2917 4.10688 11.4366 4.13406 11.5725 4.13406C12.1431 4.13406 12.6685 3.77174 12.8587 3.20109C13.0942 2.48551 12.7138 1.71558 11.9982 1.48007L9.2808 0.574277C8.57427 0.338769 7.80435 0.719204 7.55978 1.43478C7.31522 2.15036 7.70471 2.92029 8.42029 3.1558H8.42935Z" fill="black"/>
<path d="M8.85507 8.66304C9 8.66304 9.14493 8.64493 9.2808 8.59058L11.9982 7.68478C12.7138 7.44928 13.0942 6.67935 12.8587 5.96377C12.6232 5.24819 11.8533 4.86775 11.1377 5.10326L8.42029 6.00906C7.70471 6.24456 7.32427 7.01449 7.55978 7.73007C7.75 8.30072 8.27536 8.66304 8.84601 8.66304H8.85507Z" fill="black"/>
<path d="M24.2536 4.13406C24.3985 4.13406 24.5435 4.11594 24.6793 4.06159L27.3967 3.1558C28.1123 2.92029 28.4927 2.15036 28.2572 1.43478C28.0217 0.719204 27.2518 0.338769 26.5362 0.574277L23.8188 1.48007C23.1033 1.71558 22.7228 2.48551 22.9583 3.20109C23.1485 3.77174 23.6739 4.13406 24.2446 4.13406H24.2536Z" fill="black"/>
<path d="M23.8279 7.68478L26.5453 8.59058C26.6902 8.63587 26.8351 8.66304 26.971 8.66304C27.5417 8.66304 28.067 8.30072 28.2572 7.73007C28.4927 7.01449 28.1123 6.24456 27.3967 6.00906L24.6793 5.10326C23.9728 4.86775 23.1938 5.24819 22.9583 5.96377C22.7228 6.67935 23.1033 7.44928 23.8188 7.68478H23.8279Z" fill="black"/>
</svg>
