<svg width="35" height="36" viewBox="0 0 35 36" fill="none" xmlns="http://www.w3.org/2000/svg">
<path d="M12.6102 20.2682L12.4562 20.1867C11.8312 19.8697 11.3149 19.3534 10.9978 18.7284L10.9163 18.5744C10.5993 17.9584 9.72972 17.9584 9.41269 18.5744L9.33117 18.7284C9.01414 19.3534 8.49783 19.8697 7.87283 20.1867L7.71885 20.2682C7.10291 20.5852 7.10291 21.4548 7.71885 21.7718L7.87283 21.8534C8.49783 22.1704 9.01414 22.6867 9.33117 23.3117L9.41269 23.4657C9.72972 24.0816 10.5993 24.0816 10.9163 23.4657L10.9978 23.3117C11.3149 22.6867 11.8312 22.1704 12.4562 21.8534L12.6102 21.7718C13.2261 21.4548 13.2261 20.5852 12.6102 20.2682Z" fill="black"/>
<path d="M16.4598 16.1831L16.6047 15.8932C17.0667 14.9874 17.7913 14.2628 18.6971 13.8008L18.987 13.6559C19.9652 13.1577 20.5721 12.1613 20.5721 11.0653C20.5721 9.96931 19.9652 8.97293 18.987 8.46569L18.6971 8.32076C17.7913 7.8588 17.0667 7.13416 16.6047 6.22837L16.4598 5.93851C15.9616 4.96025 14.9652 4.35337 13.8692 4.35337C12.7732 4.35337 11.7768 4.96025 11.2696 5.93851L11.1246 6.22837C10.6627 7.13416 9.93805 7.8588 9.03225 8.32076L8.7424 8.46569C7.76414 8.96387 7.15725 9.96025 7.15725 11.0653C7.15725 12.1704 7.76414 13.1577 8.7424 13.665L9.03225 13.8099C9.93805 14.2718 10.6627 14.9965 11.1246 15.9023L11.2696 16.1921C11.7678 17.1704 12.7641 17.7773 13.8692 17.7773C14.9743 17.7773 15.9616 17.1704 16.4688 16.1921L16.4598 16.1831ZM14.1862 14.6613L14.0413 14.9512C14.0413 14.9512 13.987 15.0599 13.8692 15.0599C13.7515 15.0599 13.7062 14.9784 13.6971 14.9512L13.5522 14.6613C12.8275 13.2392 11.6953 12.107 10.2732 11.3824L9.98334 11.2374C9.98334 11.2374 9.87465 11.1831 9.87465 11.0653C9.87465 10.9476 9.95617 10.9023 9.98334 10.8932L10.2732 10.7483C11.6953 10.0237 12.8275 8.89141 13.5522 7.46931L13.6971 7.17945C13.6971 7.17945 13.7515 7.07076 13.8692 7.07076C13.987 7.07076 14.0323 7.14322 14.0413 7.17945L14.1862 7.46931C14.9109 8.89141 16.0431 10.0237 17.4652 10.7483L17.7551 10.8932C17.7551 10.8932 17.8638 10.9476 17.8638 11.0653C17.8638 11.1831 17.7823 11.2284 17.7551 11.2374L17.4652 11.3824C16.0431 12.107 14.9109 13.2392 14.1862 14.6613Z" fill="black"/>
<path d="M12.6102 26.9077L12.4562 26.8262C11.8312 26.5092 11.3149 25.9929 10.9978 25.3679L10.9163 25.2139C10.5993 24.5979 9.72972 24.5979 9.41269 25.2139L9.33117 25.3679C9.01414 25.9929 8.49783 26.5092 7.87283 26.8262L7.71885 26.9077C7.10291 27.2247 7.10291 28.0943 7.71885 28.4113L7.87283 28.4929C8.49783 28.8099 9.01414 29.3262 9.33117 29.9512L9.41269 30.1052C9.72972 30.7211 10.5993 30.7211 10.9163 30.1052L10.9978 29.9512C11.3149 29.3262 11.8312 28.8099 12.4562 28.4929L12.6102 28.4113C13.2261 28.0943 13.2261 27.2247 12.6102 26.9077Z" fill="black"/>
<path d="M25.717 19.6613H15.7533C15.0015 19.6613 14.3946 20.2682 14.3946 21.02C14.3946 21.7718 15.0015 22.3787 15.7533 22.3787H25.717C26.4688 22.3787 27.0757 21.7718 27.0757 21.02C27.0757 20.2682 26.4688 19.6613 25.717 19.6613Z" fill="black"/>
<path d="M25.717 26.3008H15.7533C15.0015 26.3008 14.3946 26.9077 14.3946 27.6595C14.3946 28.4113 15.0015 29.0182 15.7533 29.0182H25.717C26.4688 29.0182 27.0757 28.4113 27.0757 27.6595C27.0757 26.9077 26.4688 26.3008 25.717 26.3008Z" fill="black"/>
<path d="M25.717 13.0128H22.9996C22.2478 13.0128 21.6409 13.6197 21.6409 14.3715C21.6409 15.1233 22.2478 15.7302 22.9996 15.7302H25.717C26.4688 15.7302 27.0757 15.1233 27.0757 14.3715C27.0757 13.6197 26.4688 13.0128 25.717 13.0128Z" fill="black"/>
<path d="M25.717 6.37329H22.9996C22.2478 6.37329 21.6409 6.98018 21.6409 7.73199C21.6409 8.4838 22.2478 9.09068 22.9996 9.09068H25.717C26.4688 9.09068 27.0757 8.4838 27.0757 7.73199C27.0757 6.98018 26.4688 6.37329 25.717 6.37329Z" fill="black"/>
<path d="M23.9054 0.0327148H11.2243C5.48153 0.0327148 0.807617 4.70663 0.807617 10.4494V24.9421C0.807617 30.6849 5.48153 35.3588 11.2243 35.3588H23.9054C29.6482 35.3588 34.3221 30.6849 34.3221 24.9421V10.4494C34.3221 4.70663 29.6482 0.0327148 23.9054 0.0327148ZM31.6047 24.9421C31.6047 29.1903 28.1536 32.6414 23.9054 32.6414H11.2243C6.9761 32.6414 3.52501 29.1903 3.52501 24.9421V10.4494C3.52501 6.20119 6.9761 2.75011 11.2243 2.75011H23.9054C28.1536 2.75011 31.6047 6.20119 31.6047 10.4494V24.9421Z" fill="black"/>
</svg>
