<svg width="39" height="40" viewBox="0 0 39 40" fill="none" xmlns="http://www.w3.org/2000/svg">
<path d="M18.1811 31.627L18.1796 31.6268C15.5232 31.3254 13.0552 30.107 11.2005 28.1817C9.34574 26.2563 8.22047 23.7445 8.01847 21.0787C7.81646 18.413 8.55036 15.7602 10.0938 13.5774C11.6372 11.3945 13.8935 9.81816 16.474 9.11985C19.0546 8.42154 21.7979 8.64497 24.2315 9.75165C26.665 10.8583 28.6365 12.779 29.8064 15.1828C30.9762 17.5867 31.2712 20.3232 30.6405 22.9212C30.0569 25.3248 28.7148 27.4706 26.8209 29.0452L27.1657 26.1706C27.2196 25.7207 27.0926 25.2679 26.8127 24.9116C26.5328 24.5554 26.1228 24.3249 25.6729 24.271C25.2231 24.217 24.7702 24.344 24.4139 24.6239C24.0577 24.9039 23.8273 25.3139 23.7733 25.7637L22.9866 32.323C22.9327 32.7728 23.0596 33.2257 23.3396 33.5819C23.6195 33.9382 24.0295 34.1686 24.4794 34.2226L30.9952 35.004C31.445 35.058 31.8979 34.931 32.2541 34.6511C32.6104 34.3711 32.8408 33.9611 32.8948 33.5113C32.9487 33.0614 32.8218 32.6086 32.5418 32.2523C32.2619 31.8961 31.8519 31.6656 31.402 31.6117L29.4046 31.3721C31.8063 29.2346 33.4527 26.3701 34.0867 23.2074C34.7584 19.8568 34.2526 16.3769 32.6547 13.3562C31.0569 10.3354 28.465 7.95899 25.3172 6.62865C22.1695 5.29831 18.6589 5.09564 15.379 6.05489C12.099 7.01415 9.25091 9.07649 7.31604 11.8933C5.38116 14.7101 4.47823 18.1086 4.75987 21.5143C5.04151 24.9201 6.49045 28.1241 8.86176 30.5848C11.2331 33.0455 14.3813 34.612 17.7743 35.0194L17.7743 35.0194C18.2241 35.0733 18.677 34.9464 19.0332 34.6664C19.3895 34.3865 19.6199 33.9765 19.6739 33.5266C19.7278 33.0768 19.6009 32.6239 19.3209 32.2677C19.041 31.9114 18.631 31.681 18.1811 31.627Z" fill="#35C070" stroke="#35C070" stroke-width="0.5"/>
</svg>
