<svg width="31" height="31" viewBox="0 0 31 31" fill="none" xmlns="http://www.w3.org/2000/svg">
<path d="M12.9318 5.25494C11.9013 3.73169 10.846 2.44694 9.89429 1.55819C9.42203 1.09506 8.88367 0.704555 8.29679 0.39944C7.80854 0.16544 7.03679 -0.0618097 6.31229 0.35444C5.48654 0.83369 5.35154 1.77194 5.34479 2.37044C5.33804 3.05444 5.48879 3.86444 5.73404 4.71944C6.17504 6.26519 6.98504 8.15744 8.06279 10.1239L0.691792 17.4949C0.0685419 18.1182 0.0865419 18.9709 0.201292 19.5604C0.325042 20.1972 0.622042 20.8947 1.01129 21.5922C1.79429 23.0029 3.08129 24.6544 4.66979 26.2452C6.26054 27.8359 7.91204 29.1207 9.32279 29.9037C10.0203 30.2929 10.7178 30.5899 11.3545 30.7137C11.944 30.8262 12.7945 30.8464 13.42 30.2232L26.0538 17.5894C26.3193 18.1677 26.2608 18.7414 26.1663 19.7022C26.0988 20.3592 26.0133 21.1984 26.002 22.3482V22.6249H26.0088C26.056 23.1871 26.3126 23.7111 26.7279 24.093C27.1431 24.4749 27.6867 24.6869 28.2509 24.6869C28.8151 24.6869 29.3587 24.4749 29.774 24.093C30.1892 23.7111 30.4459 23.1871 30.493 22.6249H30.4998V22.4967C30.5019 22.4088 30.4989 22.3209 30.4908 22.2334C30.367 19.4209 28.9158 16.0729 26.3058 14.3719C26.1658 14.0379 26.0074 13.7118 25.831 13.3954C25.0458 11.9869 23.761 10.3354 22.1703 8.74469C20.5795 7.15394 18.928 5.86694 17.5173 5.08394C16.8198 4.69694 16.1223 4.39994 15.4855 4.27394C14.896 4.16144 14.0455 4.14344 13.42 4.76669L12.9318 5.25494ZM8.35979 3.20069C9.21704 4.00169 10.2588 5.27519 11.3095 6.87269L9.72554 8.45894C8.86604 6.82319 8.24054 5.30444 7.89629 4.09844C7.74546 3.60536 7.64667 3.09784 7.60154 2.58419C7.80629 2.72144 8.06054 2.92169 8.35979 3.20069ZM9.24629 12.1219C10.4613 14.0389 11.737 15.6477 12.862 16.6962C12.9702 16.7969 13.0971 16.8754 13.2356 16.9271C13.3741 16.9788 13.5214 17.0027 13.6691 16.9975C13.8168 16.9923 13.962 16.958 14.0965 16.8967C14.231 16.8353 14.352 16.7481 14.4528 16.6399C14.5535 16.5318 14.632 16.4049 14.6837 16.2664C14.7354 16.1279 14.7593 15.9806 14.7541 15.8329C14.7489 15.6852 14.7146 15.54 14.6533 15.4055C14.5919 15.271 14.5047 15.1499 14.3965 15.0492C13.3773 14.0997 12.1083 12.4932 10.8775 10.4884L13.3255 8.04044C13.447 8.31044 13.5843 8.58719 13.7373 8.86169C14.5225 10.2724 15.8073 11.9239 17.398 13.5147C18.9865 15.1054 20.638 16.3902 22.051 17.1732C22.3255 17.3262 22.6 17.4657 22.8723 17.5849L11.935 28.5244C11.8836 28.52 11.8325 28.5125 11.782 28.5019C11.4738 28.4412 11.0125 28.2679 10.414 27.9349C9.23504 27.2779 7.74554 26.1349 6.26054 24.6499C4.77554 23.1649 3.63254 21.6799 2.97554 20.4964C2.64479 19.9002 2.46929 19.4389 2.41079 19.1307C2.40024 19.0802 2.39272 19.0291 2.38829 18.9777L9.24629 12.1219ZM15.7038 7.76819C15.4709 7.3718 15.2887 6.94774 15.1615 6.50594C15.4653 6.58019 15.8905 6.75344 16.426 7.04819C17.605 7.70519 19.0945 8.84819 20.5795 10.3332C21.592 11.3457 22.447 12.3604 23.095 13.2807C22.2898 13.2255 21.4808 13.2946 20.6965 13.4854C20.1031 12.9913 19.5325 12.4702 18.9865 11.9239C17.5015 10.4389 16.3608 8.94944 15.706 7.76819H15.7038Z" fill="#35C070"/>
</svg>
