<svg width="101" height="100" viewBox="0 0 101 100" fill="none" xmlns="http://www.w3.org/2000/svg">
<path d="M24.7344 56.8538L24.9844 56.3538C26.026 54.333 27.6719 52.6872 29.6927 51.6455L30.1927 51.3955C32.1719 50.3955 32.1719 47.5622 30.1927 46.5413L29.6927 46.2913C27.6719 45.2497 26.026 43.6038 24.9844 41.583L24.7344 41.083C23.7344 39.1038 20.901 39.1038 19.8802 41.083L19.6302 41.583C18.5885 43.6038 16.9427 45.2497 14.9219 46.2913L14.4219 46.5413C12.4427 47.5413 12.4427 50.3747 14.4219 51.3955L14.9219 51.6455C16.9427 52.6872 18.5885 54.333 19.6302 56.3538L19.8802 56.8538C20.8802 58.833 23.7135 58.833 24.7344 56.8538Z" fill="white"/>
<path d="M84.3802 73.6247L83.8802 73.3747C81.8594 72.333 80.2135 70.6872 79.1719 68.6663L78.9219 68.1663C77.9219 66.1872 75.0885 66.1872 74.0677 68.1663L73.8177 68.6663C72.776 70.6872 71.1302 72.333 69.1094 73.3747L68.6094 73.6247C66.6302 74.6247 66.6302 77.458 68.6094 78.4788L69.1094 78.7288C71.1302 79.7705 72.776 81.4163 73.8177 83.4372L74.0677 83.9372C75.0677 85.9163 77.901 85.9163 78.9219 83.9372L79.1719 83.4372C80.2135 81.4163 81.8594 79.7705 83.8802 78.7288L84.3802 78.4788C86.3594 77.4788 86.3594 74.6455 84.3802 73.6247Z" fill="white"/>
<path d="M26.3177 30.7913L26.9844 31.1247C29.0677 32.1872 30.7344 33.8538 31.7969 35.9372L32.1302 36.6038C33.276 38.8538 35.5677 40.2497 38.0885 40.2497C40.6094 40.2497 42.901 38.8538 44.0677 36.6038L44.401 35.9372C45.4635 33.8538 47.1302 32.1872 49.2135 31.1247L49.8802 30.7913C52.1302 29.6455 53.526 27.3538 53.526 24.833C53.526 22.3122 52.1302 20.0205 49.8802 18.8538L49.2135 18.5205C47.1302 17.458 45.4635 15.7913 44.401 13.708L44.0677 13.0413C42.9219 10.7913 40.6302 9.39551 38.0885 9.39551C35.5469 9.39551 33.276 10.7913 32.1094 13.0413L31.776 13.708C30.7135 15.7913 29.0469 17.458 26.9635 18.5205L26.2969 18.8538C24.0469 19.9997 22.651 22.2913 22.651 24.833C22.651 27.3747 24.0469 29.6455 26.2969 30.8122L26.3177 30.7913ZM29.151 24.4163L29.8177 24.083C33.0885 22.4163 35.6927 19.8122 37.3594 16.5413L37.6927 15.8747C37.6927 15.8747 37.8177 15.6247 38.0885 15.6247C38.3594 15.6247 38.4635 15.7913 38.4844 15.8747L38.8177 16.5413C40.4844 19.8122 43.0885 22.4163 46.3594 24.083L47.026 24.4163C47.026 24.4163 47.276 24.5413 47.276 24.8122C47.276 25.083 47.0885 25.1872 47.026 25.208L46.3594 25.5413C43.0885 27.208 40.4844 29.8122 38.8177 33.083L38.4844 33.7497C38.4844 33.7497 38.3594 33.9997 38.0885 33.9997C37.8177 33.9997 37.7135 33.8122 37.6927 33.7497L37.3594 33.083C35.6927 29.8122 33.0885 27.208 29.8177 25.5413L29.151 25.208C29.151 25.208 28.901 25.083 28.901 24.8122C28.901 24.5413 29.0885 24.4372 29.151 24.4163Z" fill="white"/>
<path d="M88.5469 26.3538L84.5052 22.3122C82.8802 20.6872 80.7135 19.7913 78.4219 19.7913C76.1302 19.7913 73.9635 20.6872 72.3385 22.3122L29.0677 65.583C29.0677 65.583 29.026 65.6455 29.0052 65.6872C28.7552 65.958 28.5469 66.2497 28.401 66.583V66.6247L22.3802 80.9788C21.4427 83.208 21.9635 85.7497 23.6927 87.458C24.8177 88.5622 26.2969 89.1455 27.8177 89.1455C28.6094 89.1455 29.4219 88.9788 30.1927 88.6455L44.2552 82.4788L44.3385 82.4372C44.6719 82.2913 44.9427 82.083 45.1927 81.8538C45.2135 81.833 45.2552 81.8122 45.2969 81.7913L88.5677 38.5205C90.1927 36.8955 91.0885 34.7288 91.0885 32.4372C91.0885 30.1455 90.1927 27.9788 88.5677 26.3538H88.5469ZM43.0677 75.1663L35.6927 67.7913L68.1094 35.3747L75.4844 42.7497L43.0677 75.1663ZM84.1302 34.1038L79.901 38.333L72.526 30.958L76.7552 26.7288C77.6302 25.833 79.1927 25.833 80.0885 26.7288L84.1302 30.7705C84.5677 31.208 84.8177 31.8122 84.8177 32.4372C84.8177 33.0622 84.5677 33.6455 84.1302 34.1038Z" fill="white"/>
</svg>
