<svg width="100" height="100" viewBox="0 0 100 100" fill="none" xmlns="http://www.w3.org/2000/svg">
<path d="M55.8332 8.73333C48.963 7.79297 41.9668 8.56829 35.4691 10.9901C28.9714 13.4119 23.1745 17.4048 18.5957 22.6125C14.677 27.1258 11.7694 32.4253 10.0683 38.1553C8.36722 43.8853 7.912 49.9129 8.73322 55.8333C10.9416 72.0583 23.1416 85.8625 39.0874 90.1917C42.6421 91.1645 46.3103 91.6605 49.9957 91.6667L50.5874 91.6625C52.6938 91.6354 54.7593 91.0765 56.592 90.0378C58.4247 88.999 59.9653 87.5141 61.0707 85.7208C62.1799 83.9373 62.8199 81.9022 62.9314 79.8049C63.0428 77.7075 62.6221 75.6161 61.7082 73.725L60.8791 71.9917C60.2413 70.7457 59.9418 69.3541 60.0106 67.956C60.0793 66.558 60.5138 65.2025 61.2707 64.025C62.3537 62.2658 64.0504 60.9705 66.0328 60.3894C68.0153 59.8084 70.1428 59.9829 72.0041 60.8792L73.7207 61.7C75.4374 62.525 77.2624 62.9458 79.1415 62.9458C82.4302 62.929 85.5817 61.6261 87.9223 59.3159C90.2629 57.0057 91.6067 53.8715 91.6665 50.5833C91.7182 46.7 91.223 42.8287 90.1957 39.0833C85.8624 23.1417 72.0582 10.9417 55.8332 8.73333ZM77.3249 54.1875L75.6082 53.3667C67.9916 49.7083 58.6499 52.5417 54.2124 59.5917C51.1374 64.4917 50.8249 70.325 53.3624 75.6L54.1915 77.3333C54.5023 77.963 54.646 78.662 54.6088 79.3632C54.5716 80.0644 54.3547 80.7443 53.9791 81.3375C53.6129 81.9435 53.0972 82.4453 52.4814 82.7948C51.8657 83.1443 51.1704 83.3297 50.4624 83.3333H49.9957C47.0468 83.3252 44.1119 82.9287 41.2666 82.1542C28.5041 78.6917 18.7541 67.6583 16.9916 54.7125C15.6541 44.9 18.4582 35.45 24.8791 28.0917C28.5321 23.901 33.1751 20.6902 38.3856 18.7516C43.596 16.8129 49.2085 16.208 54.7124 16.9917C67.6582 18.7542 78.6915 28.5083 82.154 41.2667C82.979 44.3083 83.3749 47.4083 83.3291 50.4625C83.2791 53.825 79.8082 55.3917 77.3249 54.1875Z" fill="white"/>
<path d="M31.25 66.6666C34.7018 66.6666 37.5 63.8684 37.5 60.4166C37.5 56.9648 34.7018 54.1666 31.25 54.1666C27.7982 54.1666 25 56.9648 25 60.4166C25 63.8684 27.7982 66.6666 31.25 66.6666Z" fill="white"/>
<path d="M31.25 50C34.7018 50 37.5 47.2018 37.5 43.75C37.5 40.2982 34.7018 37.5 31.25 37.5C27.7982 37.5 25 40.2982 25 43.75C25 47.2018 27.7982 50 31.25 50Z" fill="white"/>
<path d="M43.75 37.5C47.2018 37.5 50 34.7018 50 31.25C50 27.7982 47.2018 25 43.75 25C40.2982 25 37.5 27.7982 37.5 31.25C37.5 34.7018 40.2982 37.5 43.75 37.5Z" fill="white"/>
<path d="M60.4165 37.5C63.8683 37.5 66.6665 34.7018 66.6665 31.25C66.6665 27.7982 63.8683 25 60.4165 25C56.9647 25 54.1665 27.7982 54.1665 31.25C54.1665 34.7018 56.9647 37.5 60.4165 37.5Z" fill="white"/>
</svg>
