<svg width="35" height="36" viewBox="0 0 35 36" fill="none" xmlns="http://www.w3.org/2000/svg">
<path d="M5.90837 21.5889L6.01707 21.3715C6.46997 20.4929 7.18555 19.7773 8.06417 19.3244L8.28156 19.2157C9.14207 18.7809 9.14207 17.549 8.28156 17.1052L8.06417 16.9965C7.18555 16.5436 6.46997 15.828 6.01707 14.9494L5.90837 14.732C5.47359 13.8715 4.24171 13.8715 3.79787 14.732L3.68917 14.9494C3.23627 15.828 2.52069 16.5436 1.64207 16.9965L1.42468 17.1052C0.56417 17.54 0.56417 18.7719 1.42468 19.2157L1.64207 19.3244C2.52069 19.7773 3.23627 20.4929 3.68917 21.3715L3.79787 21.5889C4.23265 22.4494 5.46453 22.4494 5.90837 21.5889Z" fill="#FEA439"/>
<path d="M31.8413 28.8806L31.6239 28.7719C30.7453 28.319 30.0297 27.6034 29.5768 26.7248L29.4682 26.5074C29.0334 25.6469 27.8015 25.6469 27.3576 26.5074L27.249 26.7248C26.7961 27.6034 26.0805 28.319 25.2018 28.7719L24.9845 28.8806C24.124 29.3153 24.124 30.5472 24.9845 30.9911L25.2018 31.0998C26.0805 31.5527 26.7961 32.2682 27.249 33.1469L27.3576 33.3643C27.7924 34.2248 29.0243 34.2248 29.4682 33.3643L29.5768 33.1469C30.0297 32.2682 30.7453 31.5527 31.6239 31.0998L31.8413 30.9911C32.7018 30.5563 32.7018 29.3244 31.8413 28.8806Z" fill="#FEA439"/>
<path d="M6.59678 10.2574L6.88663 10.4023C7.79243 10.8643 8.51707 11.5889 8.97903 12.4947L9.12395 12.7845C9.62214 13.7628 10.6185 14.3697 11.7145 14.3697C12.8105 14.3697 13.8069 13.7628 14.3142 12.7845L14.4591 12.4947C14.9211 11.5889 15.6457 10.8643 16.5515 10.4023L16.8413 10.2574C17.8196 9.75918 18.4265 8.76281 18.4265 7.66679C18.4265 6.57078 17.8196 5.5744 16.8413 5.06715L16.5515 4.92223C15.6457 4.46027 14.9211 3.73563 14.4591 2.82983L14.3142 2.53998C13.816 1.56172 12.8196 0.954834 11.7145 0.954834C10.6095 0.954834 9.62214 1.56172 9.11489 2.53998L8.96997 2.82983C8.50801 3.73563 7.78337 4.46027 6.87758 4.92223L6.58772 5.06715C5.60946 5.56534 5.00258 6.56172 5.00258 7.66679C5.00258 8.77186 5.60946 9.75918 6.58772 10.2664L6.59678 10.2574ZM7.82866 7.48563L8.11852 7.3407C9.54062 6.61607 10.6729 5.48382 11.3975 4.06172L11.5424 3.77186C11.5424 3.77186 11.5968 3.66317 11.7145 3.66317C11.8323 3.66317 11.8776 3.73563 11.8866 3.77186L12.0316 4.06172C12.7562 5.48382 13.8884 6.61607 15.3105 7.3407L15.6004 7.48563C15.6004 7.48563 15.7091 7.53998 15.7091 7.65773C15.7091 7.77549 15.6276 7.82078 15.6004 7.82983L15.3105 7.97476C13.8884 8.6994 12.7562 9.83165 12.0316 11.2537L11.8866 11.5436C11.8866 11.5436 11.8323 11.6523 11.7145 11.6523C11.5968 11.6523 11.5515 11.5708 11.5424 11.5436L11.3975 11.2537C10.6729 9.83165 9.54062 8.6994 8.11852 7.97476L7.82866 7.82983C7.82866 7.82983 7.71997 7.77549 7.71997 7.65773C7.71997 7.53998 7.80149 7.49469 7.82866 7.48563Z" fill="#FEA439"/>
<path d="M33.6529 8.32802L31.8957 6.57078C31.1892 5.86425 30.2471 5.47476 29.2508 5.47476C28.2544 5.47476 27.3124 5.86425 26.6058 6.57078L7.79243 25.3842C7.79243 25.3842 7.77431 25.4114 7.76526 25.4295C7.65656 25.5472 7.56598 25.674 7.50258 25.819V25.8371L4.88482 32.078C4.47721 33.0472 4.70366 34.1523 5.45547 34.8951C5.9446 35.3751 6.58772 35.6287 7.24895 35.6287C7.59316 35.6287 7.94642 35.5563 8.28156 35.4114L14.3957 32.7302L14.4319 32.7121C14.5769 32.6487 14.6946 32.5581 14.8033 32.4585C14.8124 32.4494 14.8305 32.4403 14.8486 32.4313L33.662 13.6179C34.3685 12.9114 34.758 11.9693 34.758 10.9729C34.758 9.97657 34.3685 9.03454 33.662 8.32802H33.6529ZM13.8794 29.5509L10.6729 26.3443L24.7671 12.2501L27.9736 15.4566L13.8794 29.5509ZM31.7326 11.6976L29.8939 13.5364L26.6874 10.3298L28.5261 8.49107C28.9066 8.10157 29.5859 8.10157 29.9754 8.49107L31.7326 10.2483C31.9229 10.4385 32.0316 10.7012 32.0316 10.9729C32.0316 11.2447 31.9229 11.4983 31.7326 11.6976Z" fill="#FEA439"/>
</svg>
