<svg width="101" height="101" viewBox="0 0 101 101" fill="none" xmlns="http://www.w3.org/2000/svg">
<path d="M49.1357 25.641C49.1357 27.7949 50.3152 29.7436 52.2382 30.7179L59.9562 34.641C62.469 35.9231 64.4946 37.9487 65.7767 40.4615L69.6998 48.1795C70.6741 50.1026 72.6228 51.2821 74.7767 51.2821C76.9305 51.2821 78.8793 50.1026 79.8536 48.1795L83.7767 40.4615C85.0587 37.9487 87.0844 35.9231 89.5972 34.641L97.3152 30.7179C99.2382 29.7436 100.418 27.7949 100.418 25.641C100.418 23.4872 99.2382 21.5385 97.3152 20.5641L89.5972 16.641C87.0844 15.359 85.0587 13.3333 83.7767 10.8205L79.8536 3.10256C78.8793 1.17949 76.9305 0 74.7767 0C72.6228 0 70.6741 1.17949 69.6998 3.10256L65.7767 10.8205C64.4946 13.3333 62.469 15.359 59.9562 16.641L52.2382 20.5641C50.3152 21.5385 49.1357 23.4872 49.1357 25.641ZM63.4434 23.4872C67.4177 21.4615 70.5972 18.2821 72.6228 14.3077L74.7767 10.0769L76.9305 14.3077C78.9562 18.2821 82.1357 21.4615 86.11 23.4872L90.3408 25.641L86.11 27.7949C82.1357 29.8205 78.9562 33 76.9305 36.9744L74.7767 41.2051L72.6228 36.9744C70.5972 33 67.4177 29.8205 63.4434 27.7949L59.2126 25.641L63.4434 23.4872Z" fill="white"/>
<path d="M29.9049 37.1795C34.1532 37.1795 37.5972 33.7355 37.5972 29.4872C37.5972 25.2388 34.1532 21.7949 29.9049 21.7949C25.6566 21.7949 22.2126 25.2388 22.2126 29.4872C22.2126 33.7355 25.6566 37.1795 29.9049 37.1795Z" fill="white"/>
<path d="M96.5716 41.0256C94.4434 41.0256 92.7254 42.7436 92.7254 44.8718V70.5128C92.7254 70.8205 92.6998 71.1282 92.6741 71.4359L81.4177 61.7692C76.0844 57.1795 68.3408 57.1795 63.0075 61.7692L57.0587 66.8974L39.2382 51.5897C33.9049 47 26.1613 47 20.828 51.5897L8.13567 62.5128V29.5128C8.13567 17.4872 17.9049 7.71795 29.9305 7.71795H55.5716C57.6998 7.71795 59.4177 6 59.4177 3.8718C59.4177 1.74359 57.6998 0.0256416 55.5716 0.0256416H29.9305C13.6741 0.0256416 0.443359 13.2564 0.443359 29.5128V70.5385C0.443359 86.7949 13.6741 100.026 29.9305 100.026H70.9562C87.2126 100.026 100.443 86.7949 100.443 70.5385V44.8974C100.443 42.7692 98.7254 41.0513 96.5972 41.0513L96.5716 41.0256ZM8.21259 72.5385L25.828 57.4103C28.2639 55.3077 31.8023 55.3333 34.2126 57.4103L51.1357 71.9487L27.5972 92.1795C17.3152 91.1026 9.16131 82.8462 8.21259 72.5385ZM70.9305 92.3077H39.2639L68.0331 67.5897C70.469 65.4872 74.0075 65.4872 76.4177 67.5897L90.6228 79.7949C87.1357 87.1795 79.6228 92.3077 70.9305 92.3077Z" fill="white"/>
</svg>
