<svg width="100" height="100" viewBox="0 0 100 100" fill="none" xmlns="http://www.w3.org/2000/svg">
<path d="M90.625 15.625H9.375C7.64648 15.625 6.25 17.0215 6.25 18.75V81.25C6.25 82.9785 7.64648 84.375 9.375 84.375H90.625C92.3535 84.375 93.75 82.9785 93.75 81.25V18.75C93.75 17.0215 92.3535 15.625 90.625 15.625ZM33.0078 29.6875C36.4551 29.6875 39.2578 32.4902 39.2578 35.9375C39.2578 39.3848 36.4551 42.1875 33.0078 42.1875C29.5605 42.1875 26.7578 39.3848 26.7578 35.9375C26.7578 32.4902 29.5605 29.6875 33.0078 29.6875ZM83.1934 72.373C83.0511 72.4925 82.8713 72.5582 82.6855 72.5586H17.3047C16.875 72.5586 16.5234 72.207 16.5234 71.7773C16.5234 71.5918 16.5918 71.416 16.709 71.2695L33.3398 51.543C33.6133 51.2109 34.1113 51.1719 34.4434 51.4453C34.4727 51.4746 34.5117 51.5039 34.541 51.543L44.248 63.0664L59.6875 44.7559C59.9609 44.4238 60.459 44.3848 60.791 44.6582C60.8203 44.6875 60.8594 44.7168 60.8887 44.7559L83.3105 71.2793C83.5645 71.6016 83.5254 72.0996 83.1934 72.373Z" fill="white"/>
</svg>
