<svg width="35" height="31" viewBox="0 0 35 31" fill="none" xmlns="http://www.w3.org/2000/svg">
<path d="M27.7086 16.7917C27.1277 16.7956 26.5698 16.5905 26.1628 16.2233L17.5003 8.53792L8.86697 16.1975C8.34679 16.7994 7.47814 17.0773 6.64378 16.9088C5.80942 16.7404 5.16258 16.1565 4.98831 15.4144C4.81403 14.6723 5.14432 13.9083 5.83363 13.4592L16.042 4.4175C16.4347 4.08188 16.9548 3.88839 17.5003 3.875C18.0803 3.87545 18.6363 4.07988 19.0461 4.44333L29.2545 13.485C30.1091 14.2459 30.1091 15.4754 29.2545 16.2362C28.8441 16.5974 28.2871 16.7975 27.7086 16.7917Z" fill="white"/>
<path d="M17.5003 27.125C16.2922 27.125 15.3128 26.2576 15.3128 25.1875V5.8125C15.3128 4.74245 16.2922 3.875 17.5003 3.875C18.7084 3.875 19.6878 4.74245 19.6878 5.8125V25.1875C19.6878 26.2576 18.7084 27.125 17.5003 27.125Z" fill="white"/>
</svg>
