<svg width="150" height="150" viewBox="0 0 150 150" fill="none" xmlns="http://www.w3.org/2000/svg">
<g clip-path="url(#clip0_30_4845)">
<g clip-path="url(#clip1_30_4845)">
<g clip-path="url(#clip2_30_4845)">
<path d="M150 0H0V150H150V0Z" fill="#C3C3C3"/>
<path d="M9497 -1336H-3319V4192H9497V-1336Z" fill="#D9D9D9"/>
<mask id="mask0_30_4845" style="mask-type:luminance" maskUnits="userSpaceOnUse" x="-669" y="-431" width="1920" height="1080">
<path d="M1251 -431H-669V649H1251V-431Z" fill="white"/>
</mask>
<g mask="url(#mask0_30_4845)">
<path d="M1251 -431H-669V649H1251V-431Z" fill="white"/>
<path d="M-669 -431H1257V649H-669V-431Z" fill="#F7F7FC"/>
<path d="M260 -72H-111C-122.046 -72 -131 -63.0457 -131 -52V380C-131 391.046 -122.046 400 -111 400H260C271.046 400 280 391.046 280 380V-52C280 -63.0457 271.046 -72 260 -72Z" fill="white"/>
<path d="M260 -71.5H-111C-121.77 -71.5 -130.5 -62.7696 -130.5 -52V380C-130.5 390.77 -121.77 399.5 -111 399.5H260C270.77 399.5 279.5 390.77 279.5 380V-52C279.5 -62.7696 270.77 -71.5 260 -71.5Z" stroke="#6133E2" stroke-opacity="0.15"/>
<g style="mix-blend-mode:multiply">
<path d="M75 150C116.421 150 150 116.421 150 75C150 33.5786 116.421 0 75 0C33.5786 0 0 33.5786 0 75C0 116.421 33.5786 150 75 150Z" fill="#F4F4FC"/>
</g>
<mask id="mask1_30_4845" style="mask-type:alpha" maskUnits="userSpaceOnUse" x="23" y="20" width="111" height="111">
<path d="M133.448 20.4541H23.3828V130.519H133.448V20.4541Z" fill="#D9D9D9"/>
</mask>
<g mask="url(#mask1_30_4845)">
<path d="M83.7045 115.614C82.5301 115.614 81.5456 115.216 80.7512 114.422C79.9567 113.627 79.5595 112.643 79.5595 111.469V109.184C79.5595 108.645 79.6595 108.122 79.8593 107.615C80.0592 107.109 80.3738 106.642 80.803 106.212L103.513 83.5027L111.67 91.6603L88.9608 114.37C88.5315 114.799 88.0638 115.114 87.5577 115.314C87.0515 115.514 86.5285 115.614 85.9887 115.614H83.7045ZM41.7246 92.6834C40.75 92.6834 39.9332 92.3536 39.274 91.6942C38.6148 91.0346 38.2852 90.2174 38.2852 89.2425C38.2852 88.2675 38.6148 87.4507 39.274 86.7923C39.9332 86.1338 40.75 85.8045 41.7246 85.8045H66.9479C67.9224 85.8045 68.7393 86.1343 69.3986 86.7937C70.0578 87.4533 70.3874 88.2705 70.3874 89.2454C70.3874 90.2204 70.0578 91.0372 69.3986 91.6956C68.7393 92.3541 67.9224 92.6834 66.9479 92.6834H41.7246ZM114.881 88.4501L106.723 80.2925L110.048 76.9676C110.712 76.3031 111.518 75.9709 112.464 75.9709C113.411 75.9709 114.216 76.3031 114.881 76.9676L118.205 80.2925C118.87 80.9568 119.202 81.7623 119.202 82.7088C119.202 83.6554 118.87 84.4609 118.205 85.1252L114.881 88.4501ZM41.7246 74.3392C40.75 74.3392 39.9332 74.0095 39.274 73.35C38.6148 72.6904 38.2852 71.8732 38.2852 70.8983C38.2852 69.9233 38.6148 69.1066 39.274 68.4481C39.9332 67.7896 40.75 67.4604 41.7246 67.4604H85.2921C86.2666 67.4604 87.0835 67.7901 87.7427 68.4496C88.402 69.1091 88.7316 69.9264 88.7316 70.9013C88.7316 71.8763 88.402 72.693 87.7427 73.3515C87.0835 74.01 86.2666 74.3392 85.2921 74.3392H41.7246ZM41.7246 55.995C40.75 55.995 39.9332 55.6653 39.274 55.0058C38.6148 54.3463 38.2852 53.5291 38.2852 52.5541C38.2852 51.5791 38.6148 50.7624 39.274 50.1039C39.9332 49.4455 40.75 49.1162 41.7246 49.1162H85.2921C86.2666 49.1162 87.0835 49.446 87.7427 50.1054C88.402 50.765 88.7316 51.5822 88.7316 52.5571C88.7316 53.5321 88.402 54.3488 87.7427 55.0073C87.0835 55.6658 86.2666 55.995 85.2921 55.995H41.7246Z" fill="#30CB70" fill-opacity="0.61"/>
</g>
</g>
</g>
</g>
</g>
<defs>
<clipPath id="clip0_30_4845">
<rect width="150" height="150" fill="white"/>
</clipPath>
<clipPath id="clip1_30_4845">
<rect width="150" height="150" fill="white"/>
</clipPath>
<clipPath id="clip2_30_4845">
<rect width="150" height="150" fill="white"/>
</clipPath>
</defs>
</svg>
