<svg width="32" height="32" viewBox="0 0 32 32" fill="none" xmlns="http://www.w3.org/2000/svg">
<path fill-rule="evenodd" clip-rule="evenodd" d="M16 12C16.5523 12 17 12.4477 17 13V18C17 18.5523 16.5523 19 16 19C15.4477 19 15 18.5523 15 18V13C15 12.4477 15.4477 12 16 12Z" fill="#FFD900"/>
<path fill-rule="evenodd" clip-rule="evenodd" d="M14.5011 3.40286C14.9564 3.13882 15.4734 2.99976 15.9998 2.99976C16.5261 2.99976 17.0431 3.13881 17.4985 3.40286C17.953 3.66645 18.33 4.04526 18.5914 4.50106C18.5918 4.50183 18.5923 4.5026 18.5927 4.50338L29.5908 23.5001C29.8537 23.9553 29.9923 24.4717 29.9927 24.9974C29.9932 25.5231 29.8555 26.0398 29.5935 26.4955C29.3314 26.9512 28.9542 27.3301 28.4996 27.5942C28.045 27.8582 27.529 27.9982 27.0033 28.0001L26.9998 28.0001H4.99979L4.99627 28.0001C4.47056 27.9982 3.95456 27.8582 3.49997 27.5942C3.04539 27.3301 2.66817 26.9512 2.40612 26.4955C2.14406 26.0398 2.00637 25.5231 2.00684 24.9974C2.0073 24.4717 2.14591 23.9553 2.40877 23.5001L13.4069 4.50338C13.4073 4.5026 13.4078 4.50183 13.4082 4.50106C13.6696 4.04526 14.0466 3.66645 14.5011 3.40286ZM14.2748 5.00007L15.1402 5.50111L4.14081 24.5001C4.14074 24.5002 4.14089 24.5 4.14081 24.5001C4.05334 24.6517 4.00699 24.8241 4.00684 24.9992C4.00668 25.1744 4.05258 25.3466 4.13993 25.4986C4.22728 25.6505 4.35302 25.7768 4.50455 25.8648C4.65568 25.9526 4.82718 25.9992 5.00195 26.0001H26.9976C27.1724 25.9992 27.3439 25.9526 27.495 25.8648C27.6466 25.7768 27.7723 25.6505 27.8597 25.4986C27.947 25.3466 27.9929 25.1744 27.9927 24.9992C27.9926 24.8242 27.9465 24.6523 27.8591 24.5007C27.859 24.5005 27.8592 24.5009 27.8591 24.5007L16.8569 5.49677C16.7704 5.34577 16.6457 5.22028 16.4952 5.133C16.3447 5.04572 16.1738 4.99976 15.9998 4.99976C15.8258 4.99976 15.6549 5.04572 15.5044 5.133C15.3539 5.22028 15.2291 5.34577 15.1427 5.49677L14.2748 5.00007Z" fill="#FFD900"/>
<path d="M16 24C16.8284 24 17.5 23.3284 17.5 22.5C17.5 21.6716 16.8284 21 16 21C15.1716 21 14.5 21.6716 14.5 22.5C14.5 23.3284 15.1716 24 16 24Z" fill="#FFD900"/>
</svg>
