<svg width="17" height="10" viewBox="0 0 17 10" fill="none" xmlns="http://www.w3.org/2000/svg">
<path d="M0.477023 9.53448C0.779175 9.83264 1.18791 10 1.61395 10C2.03999 10 2.44872 9.83264 2.75087 9.53448L8.54032 3.86739L14.2491 9.53448C14.5513 9.83264 14.96 10 15.3861 10C15.8121 10 16.2208 9.83264 16.523 9.53448C16.6741 9.38566 16.7941 9.2086 16.876 9.01352C16.9578 8.81844 17 8.60919 17 8.39786C17 8.18652 16.9578 7.97728 16.876 7.7822C16.7941 7.58712 16.6741 7.41006 16.523 7.26124L9.68531 0.473536C9.53539 0.323489 9.35703 0.204393 9.16051 0.123119C8.96399 0.0418447 8.75321 2.94975e-07 8.54032 2.94975e-07C8.32743 2.94975e-07 8.11664 0.0418447 7.92013 0.123119C7.72361 0.204393 7.54525 0.323489 7.39533 0.473536L0.477023 7.26124C0.325871 7.41006 0.205899 7.58712 0.124026 7.7822C0.0421536 7.97728 -3.73441e-07 8.18652 -3.73441e-07 8.39786C-3.73441e-07 8.60919 0.0421536 8.81844 0.124026 9.01352C0.205899 9.2086 0.325871 9.38566 0.477023 9.53448Z" fill="#35C070"/>
</svg>
