<svg width="151" height="150" viewBox="0 0 151 150" fill="none" xmlns="http://www.w3.org/2000/svg">
<g clip-path="url(#clip0_30_4878)">
<g clip-path="url(#clip1_30_4878)">
<path d="M150.59 0H0.589844V150H150.59V0Z" fill="#C3C3C3"/>
<path d="M9074.59 -1336H-3741.41V4192H9074.59V-1336Z" fill="#D9D9D9"/>
<mask id="mask0_30_4878" style="mask-type:luminance" maskUnits="userSpaceOnUse" x="-1092" y="-431" width="1921" height="1080">
<path d="M828.59 -431H-1091.41V649H828.59V-431Z" fill="white"/>
</mask>
<g mask="url(#mask0_30_4878)">
<path d="M828.59 -431H-1091.41V649H828.59V-431Z" fill="white"/>
<path d="M-1091.41 -431H834.59V649H-1091.41V-431Z" fill="#F7F7FC"/>
<path d="M260.59 -72H-110.41C-121.456 -72 -130.41 -63.0457 -130.41 -52V380C-130.41 391.046 -121.456 400 -110.41 400H260.59C271.636 400 280.59 391.046 280.59 380V-52C280.59 -63.0457 271.636 -72 260.59 -72Z" fill="white"/>
<path d="M260.59 -71.5H-110.41C-121.18 -71.5 -129.91 -62.7696 -129.91 -52V380C-129.91 390.77 -121.18 399.5 -110.41 399.5H260.59C271.359 399.5 280.09 390.77 280.09 380V-52C280.09 -62.7696 271.359 -71.5 260.59 -71.5Z" stroke="#6133E2" stroke-opacity="0.15"/>
<g style="mix-blend-mode:multiply">
<path d="M75.5898 150C117.011 150 150.59 116.421 150.59 75C150.59 33.5786 117.011 0 75.5898 0C34.1685 0 0.589844 33.5786 0.589844 75C0.589844 116.421 34.1685 150 75.5898 150Z" fill="#F4F4FC"/>
</g>
<path d="M53.2431 55.5874C53.2324 55.607 53.2361 55.6314 53.2521 55.6471C53.2681 55.6627 53.2925 55.6658 53.3119 55.6547L61.8667 50.7345L70.4215 55.6547C70.4409 55.6658 70.4653 55.6627 70.4813 55.6471C70.4973 55.6314 70.501 55.607 70.4903 55.5874L65.6987 46.7997L70.4903 38.0121C70.501 37.9925 70.4973 37.9681 70.4813 37.9524C70.4653 37.9368 70.4409 37.9337 70.4215 37.9448L61.8667 42.865L53.3119 37.9448C53.2925 37.9337 53.2681 37.9368 53.2521 37.9524C53.2361 37.9681 53.2324 37.9925 53.2431 38.0121L58.0347 46.7997L53.2431 55.5874ZM111.673 80.3076C111.683 80.288 111.68 80.2636 111.664 80.248C111.648 80.2323 111.623 80.2292 111.604 80.2404L103.049 85.1605L94.4944 80.2404C94.475 80.2292 94.4506 80.2323 94.4346 80.248C94.4185 80.2636 94.4149 80.288 94.4256 80.3076L99.2172 89.0953L94.4256 97.8829C94.4149 97.9026 94.4185 97.9269 94.4346 97.9426C94.4506 97.9582 94.475 97.9613 94.4944 97.9502L103.049 93.03L111.604 97.9502C111.623 97.9613 111.648 97.9582 111.664 97.9426C111.68 97.9269 111.683 97.9026 111.673 97.8829L106.881 89.0953L111.673 80.3076ZM111.673 38.0121C111.683 37.9925 111.68 37.9681 111.664 37.9524C111.648 37.9368 111.623 37.9337 111.604 37.9448L103.049 42.865L94.4944 37.9448C94.475 37.9337 94.4506 37.9368 94.4346 37.9524C94.4185 37.9681 94.4149 37.9925 94.4256 38.0121L99.2172 46.7997L94.4256 55.5874C94.4149 55.607 94.4185 55.6314 94.4346 55.6471C94.4506 55.6627 94.475 55.6658 94.4944 55.6547L103.049 50.7345L111.604 55.6547C111.623 55.6658 111.648 55.6627 111.664 55.6471C111.68 55.6314 111.683 55.607 111.673 55.5874L106.881 46.7997L111.673 38.0121ZM83.007 59.983L90.2128 67.3836L81.9088 75.912L74.7031 68.5115L83.007 59.983ZM93.5091 64.8453L85.4804 56.5995C85.4802 56.5994 85.4806 56.5997 85.4804 56.5995C84.1903 55.2034 81.9263 55.2045 80.5689 56.5986L40.5189 97.731C39.1623 99.1243 39.1608 101.447 40.5194 102.771C40.5192 102.771 40.5196 102.771 40.5194 102.771L48.5486 111.017C48.5488 111.017 48.5489 111.018 48.5491 111.018C49.8392 112.414 52.1027 112.412 53.4601 111.018L93.5101 69.8857C94.8667 68.4924 94.8677 66.1697 93.5091 64.8453C93.5093 64.8454 93.509 64.8452 93.5091 64.8453Z" fill="url(#paint0_linear_30_4878)"/>
<path d="M93.5091 64.8453L85.4804 56.5995M93.5091 64.8453C94.8677 66.1697 94.8667 68.4924 93.5101 69.8857L53.4601 111.018C52.1027 112.412 49.8392 112.414 48.5491 111.018C48.5489 111.018 48.5488 111.017 48.5486 111.017L40.5194 102.771M93.5091 64.8453C93.509 64.8452 93.5093 64.8454 93.5091 64.8453ZM85.4804 56.5995C85.4802 56.5994 85.4806 56.5997 85.4804 56.5995ZM85.4804 56.5995C84.1903 55.2034 81.9263 55.2045 80.5689 56.5986L40.5189 97.731C39.1623 99.1243 39.1608 101.447 40.5194 102.771M40.5194 102.771C40.5196 102.771 40.5192 102.771 40.5194 102.771ZM53.2431 55.5874C53.2324 55.607 53.2361 55.6314 53.2521 55.6471C53.2681 55.6627 53.2925 55.6658 53.3119 55.6547L61.8667 50.7345L70.4215 55.6547C70.4409 55.6658 70.4653 55.6627 70.4813 55.6471C70.4973 55.6314 70.501 55.607 70.4903 55.5874L65.6987 46.7997L70.4903 38.0121C70.501 37.9925 70.4973 37.9681 70.4813 37.9524C70.4653 37.9368 70.4409 37.9337 70.4215 37.9448L61.8667 42.865L53.3119 37.9448C53.2925 37.9337 53.2681 37.9368 53.2521 37.9524C53.2361 37.9681 53.2324 37.9925 53.2431 38.0121L58.0347 46.7997L53.2431 55.5874ZM111.673 80.3076C111.683 80.288 111.68 80.2636 111.664 80.248C111.648 80.2323 111.623 80.2292 111.604 80.2404L103.049 85.1605L94.4944 80.2404C94.475 80.2292 94.4506 80.2323 94.4346 80.248C94.4185 80.2636 94.4149 80.288 94.4256 80.3076L99.2172 89.0953L94.4256 97.8829C94.4149 97.9026 94.4185 97.9269 94.4346 97.9426C94.4506 97.9582 94.475 97.9613 94.4944 97.9502L103.049 93.03L111.604 97.9502C111.623 97.9613 111.648 97.9582 111.664 97.9426C111.68 97.9269 111.683 97.9026 111.673 97.8829L106.881 89.0953L111.673 80.3076ZM111.673 38.0121C111.683 37.9925 111.68 37.9681 111.664 37.9524C111.648 37.9368 111.623 37.9337 111.604 37.9448L103.049 42.865L94.4944 37.9448C94.475 37.9337 94.4506 37.9368 94.4346 37.9524C94.4185 37.9681 94.4149 37.9925 94.4256 38.0121L99.2172 46.7997L94.4256 55.5874C94.4149 55.607 94.4185 55.6314 94.4346 55.6471C94.4506 55.6627 94.475 55.6658 94.4944 55.6547L103.049 50.7345L111.604 55.6547C111.623 55.6658 111.648 55.6627 111.664 55.6471C111.68 55.6314 111.683 55.607 111.673 55.5874L106.881 46.7997L111.673 38.0121ZM83.007 59.983L90.2128 67.3836L81.9088 75.912L74.7031 68.5115L83.007 59.983Z" stroke="white" stroke-width="0.1" stroke-linejoin="round"/>
</g>
</g>
</g>
<defs>
<linearGradient id="paint0_linear_30_4878" x1="49.6553" y1="37.9882" x2="111.557" y2="112.074" gradientUnits="userSpaceOnUse">
<stop stop-color="#FEA439"/>
<stop offset="1" stop-color="#9533E2"/>
</linearGradient>
<clipPath id="clip0_30_4878">
<rect width="150" height="150" fill="white" transform="translate(0.589844)"/>
</clipPath>
<clipPath id="clip1_30_4878">
<rect width="150" height="150" fill="white" transform="translate(0.589844)"/>
</clipPath>
</defs>
</svg>
